<svg xmlns="http://www.w3.org/2000/svg" version="1.1" width="400.000000" height="400.000000">
  <circle cx="200.000000" cy="200.000000" r="200.000000" stroke="black" stroke-width="1" fill="none"/>  <path d="M230.161372 396.936389 M263.637929 387.206236 L297.993840 370.368536 M330.656296 346.507563 L359.133362 316.238772 M381.225489 280.669655 L395.212506 241.318802 M400.000000 200.000000 M175.247202 2.686937 M157.478495 9.823691 L147.621201 19.847107 M145.880390 31.075360 L151.727422 41.860679 M163.952009 50.737803 L180.773246 56.555339 M200.000000 58.578644 "  style="fill:none;stroke:black;stroke-width:1;stroke-linecap:round;stroke-linejoin:round" />
  <path d="M244.878618 394.329655 M278.390412 382.272466 L311.896985 363.077363 M342.833707 337.007087 L368.789206 304.847422 M387.710599 267.853579 M186.138283 0.481527 L163.169070 4.826228 M147.621201 13.120331 L140.189815 23.744319 M140.836341 35.010586 L148.798354 45.316208 M162.662040 53.287079 L180.490968 57.900940 M200.000000 58.578644 "  style="fill:none;stroke:black;stroke-width:1;stroke-linecap:round;stroke-linejoin:round" />
  <path d="M259.163659 390.715442 M292.387953 376.339979 L324.722501 354.857692 M353.635551 326.708359 L376.819518 292.841691 M172.410062 1.921472 L151.445640 7.792336 M138.268343 17.084292 L133.334434 28.137825 M136.362071 39.276459 L146.362386 48.958106 M161.731657 55.913486 L180.396572 59.259626 M200.000000 58.578644 "  style="fill:none;stroke:black;stroke-width:1;stroke-linecap:round;stroke-linejoin:round" />
  <path d="M272.878921 386.128556 M305.495748 369.465909 L336.346871 345.788683 M362.957801 315.710562 M158.947547 4.305966 L140.189815 11.556696 M129.509995 21.677398 L127.121079 32.985311 M132.500669 43.831896 L144.442977 52.751302 M161.169818 58.591729 L180.490968 60.618312 M200.000000 58.578644 "  style="fill:none;stroke:black;stroke-width:1;stroke-linecap:round;stroke-linejoin:round" />
  <path d="M285.892320 380.613172 M317.587560 361.716457 L346.658146 335.957675 M145.880390 7.612047 L129.509995 16.083055 M121.430504 26.855416 L121.609588 38.240095 M129.289322 48.633025 L143.058612 56.659264 M160.981936 61.296015 L180.773246 61.963913 M200.000000 58.578644 "  style="fill:none;stroke:black;stroke-width:1;stroke-linecap:round;stroke-linejoin:round" />
  <path d="M133.334434 11.807874 L119.509032 21.327821 M114.107680 32.568479 L116.853039 43.851569 M126.758958 53.633610 L142.222625 60.644356 M161.169818 64.000302 L181.240689 63.283470 M200.000000 58.578644 "  style="fill:none;stroke:black;stroke-width:1;stroke-linecap:round;stroke-linejoin:round" />
  <path d="M121.430504 16.853039 L110.283241 27.240485 M107.612047 38.761567 L112.897241 49.765691 M124.933944 58.785491 L141.943065 64.668200 M161.731657 66.678545 L181.888794 64.564276 M200.000000 58.578644 "  style="fill:none;stroke:black;stroke-width:1;stroke-linecap:round;stroke-linejoin:round" />
  <path d="M110.283241 22.698955 L101.921472 33.764104 M102.006160 45.375036 L109.780290 55.925506 M123.831859 64.039054 L142.222625 68.692044 M162.662040 69.304952 L182.711320 65.793994 M200.000000 58.578644 "  style="fill:none;stroke:black;stroke-width:1;stroke-linecap:round;stroke-linejoin:round" />
  <path d="M100.000000 29.289322 L94.504252 40.835853 M97.344007 52.345195 L107.532204 62.271692 M123.463314 69.343704 L143.058612 72.677136 M163.952009 71.854228 L183.700345 66.960784 M200.000000 58.578644 "  style="fill:none;stroke:black;stroke-width:1;stroke-linecap:round;stroke-linejoin:round" />
  <path d="M101.921472 25.777594 M90.679813 36.560672 L88.103015 48.387626 M93.670487 59.604919 L106.174633 68.743131 M123.831859 74.648353 L144.442977 76.585098 M165.589139 74.301822 L184.846345 68.053406 M200.000000 58.578644 "  style="fill:none;stroke:black;stroke-width:1;stroke-linecap:round;stroke-linejoin:round" />
  <path d="M90.679813 32.982196 M82.412440 44.442977 L82.779406 56.346696 M91.020979 67.084292 L105.720653 75.277499 M124.933944 79.901916 L146.362386 80.378293 M167.557665 76.624164 L186.138283 69.061340 M200.000000 58.578644 "  style="fill:none;stroke:black;stroke-width:1;stroke-linecap:round;stroke-linejoin:round" />
  <path d="M80.490968 40.931249 M75.277499 52.860326 L78.584696 64.636413 M89.420998 74.711282 L106.174633 81.811867 M126.758958 85.053797 L148.798354 84.020192 M169.838628 78.798887 L187.563717 69.974878 M200.000000 58.578644 "  style="fill:none;stroke:black;stroke-width:1;stroke-linecap:round;stroke-linejoin:round" />
  <path d="M71.453060 49.548200 M69.343704 61.731657 L75.559281 73.176942 M88.885953 82.412440 L107.532204 88.283305 M129.289322 90.054382 L151.727422 87.475721 M172.410062 80.805048 L189.108919 70.785223 M200.000000 58.578644 "  style="fill:none;stroke:black;stroke-width:1;stroke-linecap:round;stroke-linejoin:round" />
  <path d="M71.453060 46.833746 L63.653129 58.750062 M64.668200 70.971532 L73.732299 81.886033 M89.420998 90.113597 L109.780290 94.629491 M132.500669 94.855511 L155.121382 90.711600 M175.247202 82.623326 L190.759008 71.484569 M200.000000 58.578644 "  style="fill:none;stroke:black;stroke-width:1;stroke-linecap:round;stroke-linejoin:round" />
  <path d="M61.731657 56.102356 L57.166293 68.448217 M61.296015 80.490968 L73.121343 90.679813 M91.020979 97.740588 L112.897241 100.789306 M136.362071 99.410948 L158.947547 93.696668 M178.322725 84.236210 L192.498093 72.066183 M200.000000 58.578644 "  style="fill:none;stroke:black;stroke-width:1;stroke-linecap:round;stroke-linejoin:round" />
  <path d="M53.341854 66.000112 L52.055023 78.549266 M59.259626 90.198286 L73.732299 99.473593 M93.670487 105.219960 L116.853039 106.703429 M140.836341 103.676821 L163.169070 96.402175 M181.607012 85.628168 L194.309425 72.524462 M200.000000 58.578644 "  style="fill:none;stroke:black;stroke-width:1;stroke-linecap:round;stroke-linejoin:round" />
  <path d="M46.364449 76.431693 L48.368545 88.955931 M58.578644 100.000000 L75.559281 108.182685 M97.344007 112.479684 L121.609588 112.314903 M145.880390 107.612047 L167.745295 98.802067 M185.068433 86.785794 L196.175561 72.854994 M200.000000 58.578644 "  style="fill:none;stroke:black;stroke-width:1;stroke-linecap:round;stroke-linejoin:round" />
  <path d="M44.442977 74.540654 M40.866638 87.296637 L46.142361 99.567989 M59.259626 109.801714 L78.584696 116.723214 M102.006160 119.449844 L127.121079 117.569686 M151.445640 111.178728 L172.632150 100.873231 M188.673654 87.697940 L198.078528 73.054595 M200.000000 58.578644 "  style="fill:none;stroke:black;stroke-width:1;stroke-linecap:round;stroke-linejoin:round" />
  <path d="M37.042199 85.605199 M36.901369 98.490309 L45.397909 110.283241 M61.296015 119.509032 L82.779406 125.012930 M107.612047 126.063313 L133.334434 122.417172 M157.478495 114.342515 L177.782573 102.595721 M192.387953 88.355820 L200.000000 73.121343 M200.000000 58.578644 "  style="fill:none;stroke:black;stroke-width:1;stroke-linecap:round;stroke-linejoin:round" />
  <path d="M31.210794 97.129403 M34.506828 109.904908 L46.142361 120.998493 M64.668200 129.028468 L88.103015 132.972001 M114.107680 132.256400 L140.189815 126.810678 M163.920856 117.072938 L183.146961 103.952948 M196.175561 88.753100 L201.921472 73.054595 M200.000000 58.578644 "  style="fill:none;stroke:black;stroke-width:1;stroke-linecap:round;stroke-linejoin:round" />
  <path d="M29.289322 95.880390 L27.004921 109.002281 M33.706078 121.430504 L48.368545 131.610552 M69.343704 138.268343 L94.504252 140.523774 M121.430504 137.969463 L147.621201 130.707891 M170.710678 119.343704 L188.673654 104.931841 M200.000000 88.885953 L203.824439 72.854994 M200.000000 58.578644 "  style="fill:none;stroke:black;stroke-width:1;stroke-linecap:round;stroke-linejoin:round" />
  <path d="M23.180482 107.952869 L24.465086 121.109491 M34.506828 132.956101 L52.055023 142.017216 M75.277499 147.139674 L101.921472 147.595522 M129.509995 143.147481 L155.557023 134.071279 M177.782573 121.132941 L194.309425 105.522974 M203.824439 88.753100 L205.690575 72.524462 M200.000000 58.578644 "  style="fill:none;stroke:black;stroke-width:1;stroke-linecap:round;stroke-linejoin:round" />
  <path d="M18.774511 120.390611 L23.615747 133.334434 M36.901369 144.370699 L57.166293 152.118266 M82.412440 155.557023 L110.283241 154.119142 M138.268343 147.740588 L163.920856 136.868451 M185.068433 122.423420 L200.000000 105.720653 M207.612047 88.355820 L207.501907 72.066183 M200.000000 58.578644 "  style="fill:none;stroke:black;stroke-width:1;stroke-linecap:round;stroke-linejoin:round" />
  <path d="M16.853039 119.662799 M16.113840 133.073833 L24.465086 145.559377 M40.866638 155.564371 L63.653129 161.816421 M90.679813 163.439328 L119.509032 160.031806 M147.621201 151.704549 L172.632150 139.072468 M192.498093 123.202713 L205.690575 105.522974 M211.326346 87.697940 L209.240992 71.484569 M200.000000 58.578644 "  style="fill:none;stroke:black;stroke-width:1;stroke-linecap:round;stroke-linejoin:round" />
  <path d="M12.289401 132.545623 M15.224093 145.880390 L27.004921 157.666587 M46.364449 166.429315 L71.453060 171.018283 M100.000000 170.710678 L129.509995 165.276572 M157.478495 155.001189 L181.607012 140.662104 M200.000000 123.463314 L211.326346 104.931841 M214.931567 86.785794 L210.891081 70.785223 M200.000000 58.578644 "  style="fill:none;stroke:black;stroke-width:1;stroke-linecap:round;stroke-linejoin:round" />
  <path d="M9.533519 145.682711 M16.113840 158.686947 L31.210794 169.539465 M53.341854 176.860896 L80.490968 179.635234 M110.283241 177.301045 L140.189815 169.802931 M167.745295 157.598759 L190.759008 141.622052 M207.501907 123.202713 L216.853039 103.952948 M218.392988 85.628168 L212.436283 69.974878 M200.000000 58.578644 "  style="fill:none;stroke:black;stroke-width:1;stroke-linecap:round;stroke-linejoin:round" />
  <path d="M7.612047 145.350257 L8.611933 158.947547 M18.774511 171.370169 L37.042199 181.063669 M61.731657 186.758652 L90.679813 187.584287 M121.430504 183.146961 L151.445640 173.567290 M178.322725 159.472245 L200.000000 141.943065 M214.931567 122.423420 L222.217427 102.595721 M221.677275 84.236210 L213.861717 69.061340 M200.000000 58.578644 "  style="fill:none;stroke:black;stroke-width:1;stroke-linecap:round;stroke-linejoin:round" />
  <path d="M4.787494 158.814694 L9.533519 172.212383 M23.180482 183.807911 L44.442977 192.128214 M71.453060 196.027263 L101.921472 194.788888 M133.334434 188.192126 L163.169070 176.533398 M189.108919 160.603602 L209.240992 141.622052 M222.217427 121.132941 L227.367850 100.873231 M224.752798 82.623326 L215.153655 68.053406 M200.000000 58.578644 "  style="fill:none;stroke:black;stroke-width:1;stroke-linecap:round;stroke-linejoin:round" />
  <path d="M3.842944 172.410062 L12.289401 185.349472 M29.289322 195.880390 L53.341854 202.626543 M82.412440 204.577465 L114.107680 201.179655 M145.880390 192.387953 L175.247202 178.672690 M200.000000 160.981936 L218.392988 140.662104 M229.289322 119.343704 L232.254705 98.802067 M227.589938 80.805048 L216.299655 66.960784 M200.000000 58.578644 "  style="fill:none;stroke:black;stroke-width:1;stroke-linecap:round;stroke-linejoin:round" />
  <path d="M1.921472 172.343314 M4.787494 186.005430 L16.853039 198.232295 M37.042199 207.471342 L63.653129 212.457551 M94.504252 212.326917 L127.121079 206.695039 M158.947547 195.694034 L187.563717 179.964561 M210.891081 160.603602 L227.367850 139.072468 M236.079144 117.072938 L236.830930 96.402175 M230.161372 78.798887 L217.288680 65.793994 M200.000000 58.578644 "  style="fill:none;stroke:black;stroke-width:1;stroke-linecap:round;stroke-linejoin:round" />
  <path d="M0.963055 186.138283 M7.612047 199.469867 L23.180482 210.736785 M46.364449 218.469139 L75.277499 221.526561 M107.612047 219.200987 L140.836341 211.281924 M172.410062 198.078528 L200.000000 180.396572 M221.677275 159.472245 L236.079144 136.868451 M242.521505 114.342515 L241.052453 93.696668 M232.442335 76.624164 L218.111206 64.564276 M200.000000 58.578644 "  style="fill:none;stroke:black;stroke-width:1;stroke-linecap:round;stroke-linejoin:round" />
  <path d="M1.921472 199.933252 M12.289401 212.673703 L31.210794 222.742516 M57.166293 228.767867 L88.103015 229.746231 M121.609588 225.133474 L155.121382 214.896138 M186.138283 199.518473 L212.436283 179.964561 M232.254705 157.598759 L244.442977 134.071279 M248.554360 111.178728 L244.878618 90.711600 M234.410861 74.301822 L218.759311 63.283470 M200.000000 58.578644 "  style="fill:none;stroke:black;stroke-width:1;stroke-linecap:round;stroke-linejoin:round" />
  <path d="M4.787494 213.595368 M18.774511 225.489779 L40.866638 234.133867 M69.343704 238.268343 L102.006160 237.037404 M136.362071 230.067244 L169.838628 217.502871 M200.000000 200.000000 L224.752798 178.672690 M242.521505 155.001189 L252.378799 130.707891 M254.119610 107.612047 L248.272578 87.475721 M236.047991 71.854228 L219.226754 61.963913 M200.000000 58.578644 "  style="fill:none;stroke:black;stroke-width:1;stroke-linecap:round;stroke-linejoin:round" />
  <path d="M0.963055 213.861717 L9.533519 226.993057 M27.004921 237.794668 L52.055023 244.801132 M82.779406 246.879073 L116.853039 243.329860 M151.727422 233.954784 L184.846345 219.077021 M213.861717 199.518473 L236.830930 176.533398 M252.378799 151.704549 L259.810185 126.810678 M259.163659 103.676821 L251.201646 84.020192 M237.337960 69.304952 L219.509032 60.618312 M200.000000 58.578644 "  style="fill:none;stroke:black;stroke-width:1;stroke-linecap:round;stroke-linejoin:round" />
  <path d="M3.842944 227.589938 L16.113840 239.997292 M36.901369 249.469867 L64.668200 254.641581 M97.344007 254.517130 L132.500669 248.563000 M167.557665 236.758652 L200.000000 219.603428 M227.589938 198.078528 L248.554360 173.567290 M261.731657 147.740588 L266.665566 122.417172 M263.637929 99.410948 L253.637614 80.378293 M238.268343 66.678545 L219.603428 59.259626 M200.000000 58.578644 "  style="fill:none;stroke:black;stroke-width:1;stroke-linecap:round;stroke-linejoin:round" />
  <path d="M8.611933 241.052453 L24.465086 252.482836 M48.368545 260.402938 L78.584696 263.560443 M112.897241 261.108956 L148.798354 252.686426 M183.700345 238.451848 L215.153655 219.077021 M241.052453 195.694034 L259.810185 169.802931 M270.490005 143.147481 L272.878921 117.569686 M267.499331 94.855511 L255.557023 76.585098 M238.830182 64.000302 L219.509032 57.900940 M200.000000 58.578644 "  style="fill:none;stroke:black;stroke-width:1;stroke-linecap:round;stroke-linejoin:round" />
  <path d="M4.787494 241.318802 M15.224093 254.119610 L34.506828 264.329445 M61.296015 270.488590 L93.670487 271.471827 M129.289322 266.591068 L165.589139 255.660428 M200.000000 239.018064 L230.161372 217.502871 M254.119610 192.387953 L270.490005 165.276572 M278.569496 137.969463 L278.390412 112.314903 M270.710678 90.054382 L256.941388 72.677136 M239.018064 61.296015 L219.226754 56.555339 M200.000000 58.578644 "  style="fill:none;stroke:black;stroke-width:1;stroke-linecap:round;stroke-linejoin:round" />
  <path d="M9.533519 254.716491 M23.615747 266.665566 L46.142361 275.423031 M75.559281 279.629692 L109.780290 278.299540 M146.362386 270.910670 L182.711320 257.456363 M216.299655 238.451848 L244.878618 214.896138 M266.665566 188.192126 L280.490968 160.031806 M285.892320 132.256400 L283.146961 106.703429 M273.241042 85.053797 L257.777375 68.692044 M238.830182 58.591729 L218.759311 55.235782 M200.000000 58.578644 "  style="fill:none;stroke:black;stroke-width:1;stroke-linecap:round;stroke-linejoin:round" />
  <path d="M16.113840 267.720726 M33.706078 278.569496 L59.259626 285.656756 M91.020979 287.738210 L126.758958 283.977827 M163.952009 274.026162 L200.000000 258.056935 M232.442335 236.758652 L259.163659 211.281924 M278.569496 183.146961 L289.716759 154.119142 M292.387953 126.063313 L287.102759 100.789306 M275.066056 79.901916 L258.056935 64.668200 M238.268343 55.913486 L218.111206 53.954977 M200.000000 58.578644 "  style="fill:none;stroke:black;stroke-width:1;stroke-linecap:round;stroke-linejoin:round" />
  <path d="M12.289401 267.853579 L24.465086 280.206270 M45.397909 289.716759 L73.732299 294.932063 M107.532204 294.736055 L144.442977 288.452005 M181.888794 275.907541 L217.288680 257.456363 M248.272578 233.954784 L272.878921 206.695039 M289.716759 177.301045 L298.078528 147.595522 M297.993840 119.449844 L290.219710 94.629491 M276.168141 74.648353 L257.777375 60.644356 M237.337960 53.287079 L217.288680 52.725258 M200.000000 58.578644 "  style="fill:none;stroke:black;stroke-width:1;stroke-linecap:round;stroke-linejoin:round" />
  <path d="M18.774511 280.669655 L34.506828 292.052879 M58.578644 300.000000 L89.420998 303.159627 M124.933944 300.555834 L162.662040 291.678985 M200.000000 276.536686 L234.410861 255.660428 M263.637929 230.067244 L285.892320 201.179655 M300.000000 170.710678 L305.495748 140.523774 M302.655993 112.479684 L292.467796 88.283305 M276.536686 69.343704 L256.941388 56.659264 M236.047991 50.737803 L216.299655 51.558469 M200.000000 58.578644 "  style="fill:none;stroke:black;stroke-width:1;stroke-linecap:round;stroke-linejoin:round" />
  <path d="M27.004921 292.974544 L46.142361 303.146465 M73.121343 309.320187 L106.174633 310.260211 M143.058612 305.141500 L181.240689 293.627688 M218.111206 275.907541 L251.201646 252.686426 M278.390412 225.133474 L298.078528 194.788888 M309.320187 163.439328 L311.896985 132.972001 M306.329513 105.219960 L293.825367 81.811867 M276.168141 64.039054 L255.557023 52.751302 M234.410861 48.290209 L215.153655 50.465846 M200.000000 58.578644 "  style="fill:none;stroke:black;stroke-width:1;stroke-linecap:round;stroke-linejoin:round" />
  <path d="M23.180482 292.841691 M36.901369 304.649743 L59.259626 313.380190 M88.885953 317.587560 L123.831859 316.165434 M161.731657 308.448888 L200.000000 294.279347 M236.047991 274.026162 L267.499331 248.563000 M292.387953 219.200987 L309.320187 187.584287 M317.587560 155.557023 L317.220594 125.012930 M308.979021 97.740588 L294.279347 75.277499 M275.066056 58.785491 L253.637614 48.958106 M232.442335 45.967867 L213.861717 49.457912 M200.000000 58.578644 "  style="fill:none;stroke:black;stroke-width:1;stroke-linecap:round;stroke-linejoin:round" />
  <path d="M31.210794 304.847422 M48.368545 315.582814 L73.732299 322.655497 M105.720653 324.722501 L142.222625 320.818424 M180.773246 310.446149 L218.759311 293.627688 M253.637614 270.910670 L283.146961 243.329860 M305.495748 212.326917 L319.509032 179.635234 M324.722501 147.139674 L321.415304 116.723214 M310.579002 90.113597 L293.825367 68.743131 M273.241042 53.633610 L251.201646 45.316208 M230.161372 43.793144 L212.436283 48.544374 M200.000000 58.578644 "  style="fill:none;stroke:black;stroke-width:1;stroke-linecap:round;stroke-linejoin:round" />
  <path d="M40.866638 316.238772 M61.296015 325.668466 L89.420998 330.883061 M123.463314 330.656296 L161.169818 324.174370 M200.000000 311.114047 L237.337960 291.678985 M270.710678 266.591068 L297.993840 237.037404 M317.587560 204.577465 L328.546940 171.018283 M330.656296 138.268343 L324.440719 108.182685 M311.114047 82.412440 L292.467796 62.271692 M270.710678 48.633025 L248.272578 41.860679 M227.589938 41.786983 L210.891081 47.734030 M200.000000 58.578644 "  style="fill:none;stroke:black;stroke-width:1;stroke-linecap:round;stroke-linejoin:round" />
  <path d="M37.042199 315.710562 L52.055023 326.906038 M75.559281 334.809568 L106.174633 337.983645 M141.943065 335.331800 L180.490968 326.200953 M219.226754 310.446149 L255.557023 288.452005 M287.102759 261.108956 L311.896985 229.746231 M328.546940 196.027263 L336.346871 161.816421 M335.331800 129.028468 L326.267701 99.473593 M310.579002 74.711282 L290.219710 55.925506 M267.499331 43.831896 L244.878618 38.624800 M224.752798 39.968705 L209.240992 47.034683 M200.000000 58.578644 "  style="fill:none;stroke:black;stroke-width:1;stroke-linecap:round;stroke-linejoin:round" />
  <path d="M46.364449 326.708359 L64.668200 336.746486 M91.020979 342.918086 L123.831859 343.888868 M160.981936 338.703985 L200.000000 326.878657 M238.268343 308.448888 L273.241042 283.977827 M302.655993 254.517130 L324.722501 221.526561 M338.268343 186.758652 L342.833707 152.118266 M338.703985 119.509032 L326.878657 90.679813 M308.979021 67.084292 L287.102759 49.765691 M263.637929 39.276459 L241.052453 35.639732 M221.677275 38.355820 L207.501907 46.453070 M200.000000 58.578644 "  style="fill:none;stroke:black;stroke-width:1;stroke-linecap:round;stroke-linejoin:round" />
  <path d="M57.166293 337.007087 L78.584696 345.665349 M107.532204 349.915931 L142.222625 348.541857 M180.396572 340.740374 L219.509032 326.200953 M256.941388 305.141500 L290.219710 278.299540 M317.220594 246.879073 L336.346871 212.457551 M346.658146 176.860896 L347.944977 142.017216 M340.740374 109.801714 L326.267701 81.886033 M306.329513 59.604919 L283.146961 43.851569 M259.163659 35.010586 L236.830930 32.934225 M218.392988 36.963863 L205.690575 45.994790 M200.000000 58.578644 "  style="fill:none;stroke:black;stroke-width:1;stroke-linecap:round;stroke-linejoin:round" />
  <path d="M53.341854 335.957675 M69.343704 346.507563 L93.670487 353.576732 M124.933944 355.735710 L161.169818 351.897804 M200.000000 341.421356 L238.830182 324.174370 M275.066056 300.555834 L306.329513 271.471827 M330.656296 238.268343 L346.658146 202.626543 M353.635551 166.429315 L351.631455 131.610552 M341.421356 100.000000 L324.440719 73.176942 M302.655993 52.345195 L278.390412 38.240095 M254.119610 31.075360 L232.254705 30.534333 M214.931567 35.806237 L203.824439 45.664258 M200.000000 58.578644 "  style="fill:none;stroke:black;stroke-width:1;stroke-linecap:round;stroke-linejoin:round" />
  <path d="M63.653129 345.788683 M82.779406 355.118293 L109.780290 360.404445 M143.058612 360.321375 L180.490968 353.924387 M219.603428 340.740374 L257.777375 320.818424 M292.467796 294.736055 L321.415304 263.560443 M342.833707 228.767867 L355.557023 192.128214 M359.133362 155.564371 L353.857639 120.998493 M340.740374 90.198286 L321.415304 64.636413 M297.993840 45.375036 L272.878921 32.985311 M248.554360 27.508679 L227.367850 28.463169 M211.326346 34.894091 L201.921472 45.464657 M200.000000 58.578644 "  style="fill:none;stroke:black;stroke-width:1;stroke-linecap:round;stroke-linejoin:round" />
  <path d="M75.277499 354.857692 M97.344007 362.756350 L126.758958 366.082733 M161.731657 363.628764 L200.000000 354.602091 M239.018064 338.703985 L276.168141 316.165434 M308.979021 287.738210 L335.331800 254.641581 M353.635551 218.469139 L362.957801 181.063669 M363.098631 144.370699 L354.602091 110.283241 M338.703985 80.490968 L317.220594 56.346696 M292.387953 38.761567 L266.665566 28.137825 M242.521505 24.344892 L222.217427 26.740679 M207.612047 34.236210 L200.000000 45.397909 M200.000000 58.578644 "  style="fill:none;stroke:black;stroke-width:1;stroke-linecap:round;stroke-linejoin:round" />
  <path d="M88.103015 363.077363 M112.897241 369.348176 L144.442977 370.556911 M180.773246 365.626025 L219.509032 353.924387 M258.056935 335.331800 L293.825367 310.260211 M324.440719 279.629692 L347.944977 244.801132 M362.957801 207.471342 L368.789206 169.539465 M365.493172 132.956101 L353.857639 99.567989 M335.331800 70.971532 L311.896985 48.387626 M285.892320 32.568479 L259.810185 23.744319 M236.079144 21.614469 L216.853039 25.383452 M203.824439 33.838931 L198.078528 45.464657 M200.000000 58.578644 "  style="fill:none;stroke:black;stroke-width:1;stroke-linecap:round;stroke-linejoin:round" />
  <path d="M82.412440 361.716457 L102.006160 370.368536 M129.289322 374.830288 L162.662040 373.783890 M200.000000 366.293922 L238.830182 351.897804 M276.536686 330.656296 L310.579002 303.159627 M338.703985 270.488590 L359.133362 234.133867 M370.710678 195.880390 L372.995079 157.666587 M366.293922 121.430504 L351.631455 88.955931 M330.656296 61.731657 L305.495748 40.835853 M278.569496 26.855416 L252.378799 19.847107 M229.289322 19.343704 L211.326346 24.404558 M200.000000 33.706078 L196.175561 45.664258 M200.000000 58.578644 "  style="fill:none;stroke:black;stroke-width:1;stroke-linecap:round;stroke-linejoin:round" />
  <path d="M94.504252 369.465909 L116.853039 376.660992 M146.362386 379.149890 L181.240689 375.732593 M219.226754 365.626025 L257.777375 348.541857 M294.279347 324.722501 L326.267701 294.932063 M351.631455 260.402938 L368.789206 222.742516 M376.819518 183.807911 L375.534914 145.559377 M365.493172 109.904908 L347.944977 78.549266 M324.722501 52.860326 L298.078528 33.764104 M270.490005 21.677398 L244.442977 16.483719 M222.217427 17.554466 L205.690575 23.813426 M196.175561 33.838931 L194.309425 45.994790 M200.000000 58.578644 "  style="fill:none;stroke:black;stroke-width:1;stroke-linecap:round;stroke-linejoin:round" />
  <path d="M107.612047 376.339979 L132.500669 381.894132 M163.952009 382.265382 L200.000000 376.384253 M238.268343 363.628764 L276.168141 343.888868 M311.114047 317.587560 L340.740374 285.656756 M363.098631 249.469867 L376.819518 210.736785 M381.225489 171.370169 L376.384253 133.334434 M363.098631 98.490309 L342.833707 68.448217 M317.587560 44.442977 L289.716759 27.240485 M261.731657 17.084292 L236.079144 13.686547 M214.931567 16.263987 L200.000000 23.615747 M192.387953 34.236210 L192.498093 46.453070 M200.000000 58.578644 "  style="fill:none;stroke:black;stroke-width:1;stroke-linecap:round;stroke-linejoin:round" />
  <path d="M121.609588 382.272466 L148.798354 386.017558 M181.888794 384.146761 L218.759311 375.732593 M256.941388 360.321375 L293.825367 337.983645 M326.878657 309.320187 L353.857639 275.423031 M372.995079 237.794668 L383.146961 198.232295 M383.886160 158.686947 L375.534914 121.109491 M359.133362 87.296637 L336.346871 58.750062 M309.320187 36.560672 L280.490968 21.327821 M252.378799 13.120331 L227.367850 11.482530 M207.501907 15.484694 L194.309425 23.813426 M188.673654 34.894091 L190.759008 47.034683 M200.000000 58.578644 "  style="fill:none;stroke:black;stroke-width:1;stroke-linecap:round;stroke-linejoin:round" />
  <path d="M114.107680 380.613172 M136.362071 387.206236 L165.589139 388.991559 M200.000000 384.775907 L237.337960 373.783890 M275.066056 355.735710 L310.579002 330.883061 M341.421356 300.000000 L365.493172 264.329445 M381.225489 225.489779 L387.710599 185.349472 M384.775907 145.880390 L372.995079 109.002281 M353.635551 76.431693 L328.546940 49.548200 M300.000000 29.289322 L270.490005 16.083055 M242.521505 9.823691 L218.392988 9.892893 M200.000000 15.224093 L188.673654 24.404558 M185.068433 35.806237 L189.108919 47.734030 M200.000000 58.578644 "  style="fill:none;stroke:black;stroke-width:1;stroke-linecap:round;stroke-linejoin:round" />
  <path d="M127.121079 386.128556 M151.727422 391.093775 L182.711320 390.787494 M218.111206 384.146761 L255.557023 370.556911 M292.467796 349.915931 L326.267701 322.655497 M354.602091 289.716759 L375.534914 252.482836 M387.710599 212.673703 L390.466481 172.212383 M383.886160 133.073833 L368.789206 97.129403 M346.658146 66.000112 L319.509032 40.931249 M289.716759 22.698955 L259.810185 11.556696 M232.254705 7.226120 L209.240992 8.932946 M192.498093 15.484694 L183.146961 25.383452 M181.607012 36.963863 L187.563717 48.544374 M200.000000 58.578644 "  style="fill:none;stroke:black;stroke-width:1;stroke-linecap:round;stroke-linejoin:round" />
  <path d="M140.836341 390.715442 M167.557665 393.897644 L200.000000 391.388067 M236.047991 382.265382 L273.241042 366.082733 M308.979021 342.918086 L340.740374 313.380190 M366.293922 278.569496 L383.886160 239.997292 M392.387953 199.469867 L391.388067 158.947547 M381.225489 120.390611 L362.957801 85.605199 M338.268343 56.102356 L309.320187 32.982196 M278.569496 16.853039 L248.554360 7.792336 M221.677275 5.352635 L200.000000 8.611933 M185.068433 16.263987 L177.782573 26.740679 M178.322725 38.355820 L186.138283 49.457912 M200.000000 58.578644 "  style="fill:none;stroke:black;stroke-width:1;stroke-linecap:round;stroke-linejoin:round" />
  <path d="M155.121382 394.329655 M183.700345 395.590840 L217.288680 390.787494 M253.637614 379.149890 L290.219710 360.404445 M324.440719 334.809568 L353.857639 303.146465 M376.384253 266.665566 L390.466481 226.993057 M395.212506 186.005430 L390.466481 145.682711 M376.819518 107.952869 L355.557023 74.540654 M328.546940 46.833746 L298.078528 25.777594 M266.665566 11.807874 L236.830930 4.826228 M210.891081 4.221278 L190.759008 8.932946 M177.782573 17.554466 L172.632150 28.463169 M175.247202 39.968705 L184.846345 50.465846 M200.000000 58.578644 "  style="fill:none;stroke:black;stroke-width:1;stroke-linecap:round;stroke-linejoin:round" />
  <path d="M169.838628 396.936389 M200.000000 396.157056 L234.410861 388.991559 M270.710678 374.830288 L306.329513 353.576732 M338.703985 325.668466 L365.493172 292.052879 M384.775907 254.119610 L395.212506 213.595368 M396.157056 172.410062 L387.710599 132.545623 M370.710678 95.880390 M254.119610 7.612047 L224.752798 2.686937 M200.000000 3.842944 L181.607012 9.892893 M170.710678 19.343704 L167.745295 30.534333 M172.410062 41.786983 L183.700345 51.558469 M200.000000 58.578644 "  style="fill:none;stroke:black;stroke-width:1;stroke-linecap:round;stroke-linejoin:round" />
  <path d="M184.846345 398.510539 M216.299655 395.590840 L251.201646 386.017558 M287.102759 369.348176 L321.415304 345.665349 M351.631455 315.582814 L375.534914 280.206270 M391.388067 241.052453 L398.078528 199.933252 M395.212506 158.814694 L383.146961 119.662799 M241.052453 4.305966 L212.436283 1.395065 M189.108919 4.221278 L172.632150 11.482530 M163.920856 21.614469 L163.169070 32.934225 M169.838628 43.793144 L182.711320 52.725258 M200.000000 58.578644 "  style="fill:none;stroke:black;stroke-width:1;stroke-linecap:round;stroke-linejoin:round" />
  <path d="M200.000000 399.036945 M232.442335 393.897644 L267.499331 381.894132 M302.655993 362.756350 L335.331800 336.746486 M363.098631 304.649743 L383.886160 267.720726 M396.157056 227.589938 L399.036945 186.138283 M392.387953 145.350257 M227.589938 1.921472 L200.000000 0.963055 M178.322725 5.352635 L163.920856 13.686547 M157.478495 24.344892 L158.947547 35.639732 M167.557665 45.967867 L181.888794 53.954977 M200.000000 58.578644 "  style="fill:none;stroke:black;stroke-width:1;stroke-linecap:round;stroke-linejoin:round" />
  <path d="M215.153655 398.510539 M248.272578 391.093775 L283.146961 376.660992 M317.220594 355.118293 L347.944977 326.906038 M372.995079 292.974544 L390.466481 254.716491 M399.036945 213.861717 L398.078528 172.343314 M213.861717 0.481527 L187.563717 1.395065 M167.745295 7.226120 L155.557023 16.483719 M151.445640 27.508679 L155.121382 38.624800 M165.589139 48.290209 L181.240689 55.235782 M200.000000 58.578644 "  style="fill:none;stroke:black;stroke-width:1;stroke-linecap:round;stroke-linejoin:round" />
  <path d="M169.838628 396.936389 M136.362071 387.206236 L102.006160 370.368536 M69.343704 346.507563 L40.866638 316.238772 M18.774511 280.669655 L4.787494 241.318802 M0.000000 200.000000 M224.752798 2.686937 M242.521505 9.823691 L252.378799 19.847107 M254.119610 31.075360 L248.272578 41.860679 M236.047991 50.737803 L219.226754 56.555339 M200.000000 58.578644 "  style="fill:none;stroke:black;stroke-width:1;stroke-linecap:round;stroke-linejoin:round" />
  <path d="M155.121382 394.329655 M121.609588 382.272466 L88.103015 363.077363 M57.166293 337.007087 L31.210794 304.847422 M12.289401 267.853579 M213.861717 0.481527 L236.830930 4.826228 M252.378799 13.120331 L259.810185 23.744319 M259.163659 35.010586 L251.201646 45.316208 M237.337960 53.287079 L219.509032 57.900940 M200.000000 58.578644 "  style="fill:none;stroke:black;stroke-width:1;stroke-linecap:round;stroke-linejoin:round" />
  <path d="M140.836341 390.715442 M107.612047 376.339979 L75.277499 354.857692 M46.364449 326.708359 L23.180482 292.841691 M227.589938 1.921472 L248.554360 7.792336 M261.731657 17.084292 L266.665566 28.137825 M263.637929 39.276459 L253.637614 48.958106 M238.268343 55.913486 L219.603428 59.259626 M200.000000 58.578644 "  style="fill:none;stroke:black;stroke-width:1;stroke-linecap:round;stroke-linejoin:round" />
  <path d="M127.121079 386.128556 M94.504252 369.465909 L63.653129 345.788683 M37.042199 315.710562 M241.052453 4.305966 L259.810185 11.556696 M270.490005 21.677398 L272.878921 32.985311 M267.499331 43.831896 L255.557023 52.751302 M238.830182 58.591729 L219.509032 60.618312 M200.000000 58.578644 "  style="fill:none;stroke:black;stroke-width:1;stroke-linecap:round;stroke-linejoin:round" />
  <path d="M114.107680 380.613172 M82.412440 361.716457 L53.341854 335.957675 M254.119610 7.612047 L270.490005 16.083055 M278.569496 26.855416 L278.390412 38.240095 M270.710678 48.633025 L256.941388 56.659264 M239.018064 61.296015 L219.226754 61.963913 M200.000000 58.578644 "  style="fill:none;stroke:black;stroke-width:1;stroke-linecap:round;stroke-linejoin:round" />
  <path d="M266.665566 11.807874 L280.490968 21.327821 M285.892320 32.568479 L283.146961 43.851569 M273.241042 53.633610 L257.777375 60.644356 M238.830182 64.000302 L218.759311 63.283470 M200.000000 58.578644 "  style="fill:none;stroke:black;stroke-width:1;stroke-linecap:round;stroke-linejoin:round" />
  <path d="M278.569496 16.853039 L289.716759 27.240485 M292.387953 38.761567 L287.102759 49.765691 M275.066056 58.785491 L258.056935 64.668200 M238.268343 66.678545 L218.111206 64.564276 M200.000000 58.578644 "  style="fill:none;stroke:black;stroke-width:1;stroke-linecap:round;stroke-linejoin:round" />
  <path d="M289.716759 22.698955 L298.078528 33.764104 M297.993840 45.375036 L290.219710 55.925506 M276.168141 64.039054 L257.777375 68.692044 M237.337960 69.304952 L217.288680 65.793994 M200.000000 58.578644 "  style="fill:none;stroke:black;stroke-width:1;stroke-linecap:round;stroke-linejoin:round" />
  <path d="M300.000000 29.289322 L305.495748 40.835853 M302.655993 52.345195 L292.467796 62.271692 M276.536686 69.343704 L256.941388 72.677136 M236.047991 71.854228 L216.299655 66.960784 M200.000000 58.578644 "  style="fill:none;stroke:black;stroke-width:1;stroke-linecap:round;stroke-linejoin:round" />
  <path d="M298.078528 25.777594 M309.320187 36.560672 L311.896985 48.387626 M306.329513 59.604919 L293.825367 68.743131 M276.168141 74.648353 L255.557023 76.585098 M234.410861 74.301822 L215.153655 68.053406 M200.000000 58.578644 "  style="fill:none;stroke:black;stroke-width:1;stroke-linecap:round;stroke-linejoin:round" />
  <path d="M309.320187 32.982196 M317.587560 44.442977 L317.220594 56.346696 M308.979021 67.084292 L294.279347 75.277499 M275.066056 79.901916 L253.637614 80.378293 M232.442335 76.624164 L213.861717 69.061340 M200.000000 58.578644 "  style="fill:none;stroke:black;stroke-width:1;stroke-linecap:round;stroke-linejoin:round" />
  <path d="M319.509032 40.931249 M324.722501 52.860326 L321.415304 64.636413 M310.579002 74.711282 L293.825367 81.811867 M273.241042 85.053797 L251.201646 84.020192 M230.161372 78.798887 L212.436283 69.974878 M200.000000 58.578644 "  style="fill:none;stroke:black;stroke-width:1;stroke-linecap:round;stroke-linejoin:round" />
  <path d="M328.546940 49.548200 M330.656296 61.731657 L324.440719 73.176942 M311.114047 82.412440 L292.467796 88.283305 M270.710678 90.054382 L248.272578 87.475721 M227.589938 80.805048 L210.891081 70.785223 M200.000000 58.578644 "  style="fill:none;stroke:black;stroke-width:1;stroke-linecap:round;stroke-linejoin:round" />
  <path d="M328.546940 46.833746 L336.346871 58.750062 M335.331800 70.971532 L326.267701 81.886033 M310.579002 90.113597 L290.219710 94.629491 M267.499331 94.855511 L244.878618 90.711600 M224.752798 82.623326 L209.240992 71.484569 M200.000000 58.578644 "  style="fill:none;stroke:black;stroke-width:1;stroke-linecap:round;stroke-linejoin:round" />
  <path d="M338.268343 56.102356 L342.833707 68.448217 M338.703985 80.490968 L326.878657 90.679813 M308.979021 97.740588 L287.102759 100.789306 M263.637929 99.410948 L241.052453 93.696668 M221.677275 84.236210 L207.501907 72.066183 M200.000000 58.578644 "  style="fill:none;stroke:black;stroke-width:1;stroke-linecap:round;stroke-linejoin:round" />
  <path d="M346.658146 66.000112 L347.944977 78.549266 M340.740374 90.198286 L326.267701 99.473593 M306.329513 105.219960 L283.146961 106.703429 M259.163659 103.676821 L236.830930 96.402175 M218.392988 85.628168 L205.690575 72.524462 M200.000000 58.578644 "  style="fill:none;stroke:black;stroke-width:1;stroke-linecap:round;stroke-linejoin:round" />
  <path d="M353.635551 76.431693 L351.631455 88.955931 M341.421356 100.000000 L324.440719 108.182685 M302.655993 112.479684 L278.390412 112.314903 M254.119610 107.612047 L232.254705 98.802067 M214.931567 86.785794 L203.824439 72.854994 M200.000000 58.578644 "  style="fill:none;stroke:black;stroke-width:1;stroke-linecap:round;stroke-linejoin:round" />
  <path d="M355.557023 74.540654 M359.133362 87.296637 L353.857639 99.567989 M340.740374 109.801714 L321.415304 116.723214 M297.993840 119.449844 L272.878921 117.569686 M248.554360 111.178728 L227.367850 100.873231 M211.326346 87.697940 L201.921472 73.054595 M200.000000 58.578644 "  style="fill:none;stroke:black;stroke-width:1;stroke-linecap:round;stroke-linejoin:round" />
  <path d="M362.957801 85.605199 M363.098631 98.490309 L354.602091 110.283241 M338.703985 119.509032 L317.220594 125.012930 M292.387953 126.063313 L266.665566 122.417172 M242.521505 114.342515 L222.217427 102.595721 M207.612047 88.355820 L200.000000 73.121343 M200.000000 58.578644 "  style="fill:none;stroke:black;stroke-width:1;stroke-linecap:round;stroke-linejoin:round" />
  <path d="M368.789206 97.129403 M365.493172 109.904908 L353.857639 120.998493 M335.331800 129.028468 L311.896985 132.972001 M285.892320 132.256400 L259.810185 126.810678 M236.079144 117.072938 L216.853039 103.952948 M203.824439 88.753100 L198.078528 73.054595 M200.000000 58.578644 "  style="fill:none;stroke:black;stroke-width:1;stroke-linecap:round;stroke-linejoin:round" />
  <path d="M370.710678 95.880390 L372.995079 109.002281 M366.293922 121.430504 L351.631455 131.610552 M330.656296 138.268343 L305.495748 140.523774 M278.569496 137.969463 L252.378799 130.707891 M229.289322 119.343704 L211.326346 104.931841 M200.000000 88.885953 L196.175561 72.854994 M200.000000 58.578644 "  style="fill:none;stroke:black;stroke-width:1;stroke-linecap:round;stroke-linejoin:round" />
  <path d="M376.819518 107.952869 L375.534914 121.109491 M365.493172 132.956101 L347.944977 142.017216 M324.722501 147.139674 L298.078528 147.595522 M270.490005 143.147481 L244.442977 134.071279 M222.217427 121.132941 L205.690575 105.522974 M196.175561 88.753100 L194.309425 72.524462 M200.000000 58.578644 "  style="fill:none;stroke:black;stroke-width:1;stroke-linecap:round;stroke-linejoin:round" />
  <path d="M381.225489 120.390611 L376.384253 133.334434 M363.098631 144.370699 L342.833707 152.118266 M317.587560 155.557023 L289.716759 154.119142 M261.731657 147.740588 L236.079144 136.868451 M214.931567 122.423420 L200.000000 105.720653 M192.387953 88.355820 L192.498093 72.066183 M200.000000 58.578644 "  style="fill:none;stroke:black;stroke-width:1;stroke-linecap:round;stroke-linejoin:round" />
  <path d="M383.146961 119.662799 M383.886160 133.073833 L375.534914 145.559377 M359.133362 155.564371 L336.346871 161.816421 M309.320187 163.439328 L280.490968 160.031806 M252.378799 151.704549 L227.367850 139.072468 M207.501907 123.202713 L194.309425 105.522974 M188.673654 87.697940 L190.759008 71.484569 M200.000000 58.578644 "  style="fill:none;stroke:black;stroke-width:1;stroke-linecap:round;stroke-linejoin:round" />
  <path d="M387.710599 132.545623 M384.775907 145.880390 L372.995079 157.666587 M353.635551 166.429315 L328.546940 171.018283 M300.000000 170.710678 L270.490005 165.276572 M242.521505 155.001189 L218.392988 140.662104 M200.000000 123.463314 L188.673654 104.931841 M185.068433 86.785794 L189.108919 70.785223 M200.000000 58.578644 "  style="fill:none;stroke:black;stroke-width:1;stroke-linecap:round;stroke-linejoin:round" />
  <path d="M390.466481 145.682711 M383.886160 158.686947 L368.789206 169.539465 M346.658146 176.860896 L319.509032 179.635234 M289.716759 177.301045 L259.810185 169.802931 M232.254705 157.598759 L209.240992 141.622052 M192.498093 123.202713 L183.146961 103.952948 M181.607012 85.628168 L187.563717 69.974878 M200.000000 58.578644 "  style="fill:none;stroke:black;stroke-width:1;stroke-linecap:round;stroke-linejoin:round" />
  <path d="M392.387953 145.350257 L391.388067 158.947547 M381.225489 171.370169 L362.957801 181.063669 M338.268343 186.758652 L309.320187 187.584287 M278.569496 183.146961 L248.554360 173.567290 M221.677275 159.472245 L200.000000 141.943065 M185.068433 122.423420 L177.782573 102.595721 M178.322725 84.236210 L186.138283 69.061340 M200.000000 58.578644 "  style="fill:none;stroke:black;stroke-width:1;stroke-linecap:round;stroke-linejoin:round" />
  <path d="M395.212506 158.814694 L390.466481 172.212383 M376.819518 183.807911 L355.557023 192.128214 M328.546940 196.027263 L298.078528 194.788888 M266.665566 188.192126 L236.830930 176.533398 M210.891081 160.603602 L190.759008 141.622052 M177.782573 121.132941 L172.632150 100.873231 M175.247202 82.623326 L184.846345 68.053406 M200.000000 58.578644 "  style="fill:none;stroke:black;stroke-width:1;stroke-linecap:round;stroke-linejoin:round" />
  <path d="M396.157056 172.410062 L387.710599 185.349472 M370.710678 195.880390 L346.658146 202.626543 M317.587560 204.577465 L285.892320 201.179655 M254.119610 192.387953 L224.752798 178.672690 M200.000000 160.981936 L181.607012 140.662104 M170.710678 119.343704 L167.745295 98.802067 M172.410062 80.805048 L183.700345 66.960784 M200.000000 58.578644 "  style="fill:none;stroke:black;stroke-width:1;stroke-linecap:round;stroke-linejoin:round" />
  <path d="M398.078528 172.343314 M395.212506 186.005430 L383.146961 198.232295 M362.957801 207.471342 L336.346871 212.457551 M305.495748 212.326917 L272.878921 206.695039 M241.052453 195.694034 L212.436283 179.964561 M189.108919 160.603602 L172.632150 139.072468 M163.920856 117.072938 L163.169070 96.402175 M169.838628 78.798887 L182.711320 65.793994 M200.000000 58.578644 "  style="fill:none;stroke:black;stroke-width:1;stroke-linecap:round;stroke-linejoin:round" />
  <path d="M399.036945 186.138283 M392.387953 199.469867 L376.819518 210.736785 M353.635551 218.469139 L324.722501 221.526561 M292.387953 219.200987 L259.163659 211.281924 M227.589938 198.078528 L200.000000 180.396572 M178.322725 159.472245 L163.920856 136.868451 M157.478495 114.342515 L158.947547 93.696668 M167.557665 76.624164 L181.888794 64.564276 M200.000000 58.578644 "  style="fill:none;stroke:black;stroke-width:1;stroke-linecap:round;stroke-linejoin:round" />
  <path d="M398.078528 199.933252 M387.710599 212.673703 L368.789206 222.742516 M342.833707 228.767867 L311.896985 229.746231 M278.390412 225.133474 L244.878618 214.896138 M213.861717 199.518473 L187.563717 179.964561 M167.745295 157.598759 L155.557023 134.071279 M151.445640 111.178728 L155.121382 90.711600 M165.589139 74.301822 L181.240689 63.283470 M200.000000 58.578644 "  style="fill:none;stroke:black;stroke-width:1;stroke-linecap:round;stroke-linejoin:round" />
  <path d="M395.212506 213.595368 M381.225489 225.489779 L359.133362 234.133867 M330.656296 238.268343 L297.993840 237.037404 M263.637929 230.067244 L230.161372 217.502871 M200.000000 200.000000 L175.247202 178.672690 M157.478495 155.001189 L147.621201 130.707891 M145.880390 107.612047 L151.727422 87.475721 M163.952009 71.854228 L180.773246 61.963913 M200.000000 58.578644 "  style="fill:none;stroke:black;stroke-width:1;stroke-linecap:round;stroke-linejoin:round" />
  <path d="M399.036945 213.861717 L390.466481 226.993057 M372.995079 237.794668 L347.944977 244.801132 M317.220594 246.879073 L283.146961 243.329860 M248.272578 233.954784 L215.153655 219.077021 M186.138283 199.518473 L163.169070 176.533398 M147.621201 151.704549 L140.189815 126.810678 M140.836341 103.676821 L148.798354 84.020192 M162.662040 69.304952 L180.490968 60.618312 M200.000000 58.578644 "  style="fill:none;stroke:black;stroke-width:1;stroke-linecap:round;stroke-linejoin:round" />
  <path d="M396.157056 227.589938 L383.886160 239.997292 M363.098631 249.469867 L335.331800 254.641581 M302.655993 254.517130 L267.499331 248.563000 M232.442335 236.758652 L200.000000 219.603428 M172.410062 198.078528 L151.445640 173.567290 M138.268343 147.740588 L133.334434 122.417172 M136.362071 99.410948 L146.362386 80.378293 M161.731657 66.678545 L180.396572 59.259626 M200.000000 58.578644 "  style="fill:none;stroke:black;stroke-width:1;stroke-linecap:round;stroke-linejoin:round" />
  <path d="M391.388067 241.052453 L375.534914 252.482836 M351.631455 260.402938 L321.415304 263.560443 M287.102759 261.108956 L251.201646 252.686426 M216.299655 238.451848 L184.846345 219.077021 M158.947547 195.694034 L140.189815 169.802931 M129.509995 143.147481 L127.121079 117.569686 M132.500669 94.855511 L144.442977 76.585098 M161.169818 64.000302 L180.490968 57.900940 M200.000000 58.578644 "  style="fill:none;stroke:black;stroke-width:1;stroke-linecap:round;stroke-linejoin:round" />
  <path d="M395.212506 241.318802 M384.775907 254.119610 L365.493172 264.329445 M338.703985 270.488590 L306.329513 271.471827 M270.710678 266.591068 L234.410861 255.660428 M200.000000 239.018064 L169.838628 217.502871 M145.880390 192.387953 L129.509995 165.276572 M121.430504 137.969463 L121.609588 112.314903 M129.289322 90.054382 L143.058612 72.677136 M160.981936 61.296015 L180.773246 56.555339 M200.000000 58.578644 "  style="fill:none;stroke:black;stroke-width:1;stroke-linecap:round;stroke-linejoin:round" />
  <path d="M390.466481 254.716491 M376.384253 266.665566 L353.857639 275.423031 M324.440719 279.629692 L290.219710 278.299540 M253.637614 270.910670 L217.288680 257.456363 M183.700345 238.451848 L155.121382 214.896138 M133.334434 188.192126 L119.509032 160.031806 M114.107680 132.256400 L116.853039 106.703429 M126.758958 85.053797 L142.222625 68.692044 M161.169818 58.591729 L181.240689 55.235782 M200.000000 58.578644 "  style="fill:none;stroke:black;stroke-width:1;stroke-linecap:round;stroke-linejoin:round" />
  <path d="M383.886160 267.720726 M366.293922 278.569496 L340.740374 285.656756 M308.979021 287.738210 L273.241042 283.977827 M236.047991 274.026162 L200.000000 258.056935 M167.557665 236.758652 L140.836341 211.281924 M121.430504 183.146961 L110.283241 154.119142 M107.612047 126.063313 L112.897241 100.789306 M124.933944 79.901916 L141.943065 64.668200 M161.731657 55.913486 L181.888794 53.954977 M200.000000 58.578644 "  style="fill:none;stroke:black;stroke-width:1;stroke-linecap:round;stroke-linejoin:round" />
  <path d="M387.710599 267.853579 L375.534914 280.206270 M354.602091 289.716759 L326.267701 294.932063 M292.467796 294.736055 L255.557023 288.452005 M218.111206 275.907541 L182.711320 257.456363 M151.727422 233.954784 L127.121079 206.695039 M110.283241 177.301045 L101.921472 147.595522 M102.006160 119.449844 L109.780290 94.629491 M123.831859 74.648353 L142.222625 60.644356 M162.662040 53.287079 L182.711320 52.725258 M200.000000 58.578644 "  style="fill:none;stroke:black;stroke-width:1;stroke-linecap:round;stroke-linejoin:round" />
  <path d="M381.225489 280.669655 L365.493172 292.052879 M341.421356 300.000000 L310.579002 303.159627 M275.066056 300.555834 L237.337960 291.678985 M200.000000 276.536686 L165.589139 255.660428 M136.362071 230.067244 L114.107680 201.179655 M100.000000 170.710678 L94.504252 140.523774 M97.344007 112.479684 L107.532204 88.283305 M123.463314 69.343704 L143.058612 56.659264 M163.952009 50.737803 L183.700345 51.558469 M200.000000 58.578644 "  style="fill:none;stroke:black;stroke-width:1;stroke-linecap:round;stroke-linejoin:round" />
  <path d="M372.995079 292.974544 L353.857639 303.146465 M326.878657 309.320187 L293.825367 310.260211 M256.941388 305.141500 L218.759311 293.627688 M181.888794 275.907541 L148.798354 252.686426 M121.609588 225.133474 L101.921472 194.788888 M90.679813 163.439328 L88.103015 132.972001 M93.670487 105.219960 L106.174633 81.811867 M123.831859 64.039054 L144.442977 52.751302 M165.589139 48.290209 L184.846345 50.465846 M200.000000 58.578644 "  style="fill:none;stroke:black;stroke-width:1;stroke-linecap:round;stroke-linejoin:round" />
  <path d="M376.819518 292.841691 M363.098631 304.649743 L340.740374 313.380190 M311.114047 317.587560 L276.168141 316.165434 M238.268343 308.448888 L200.000000 294.279347 M163.952009 274.026162 L132.500669 248.563000 M107.612047 219.200987 L90.679813 187.584287 M82.412440 155.557023 L82.779406 125.012930 M91.020979 97.740588 L105.720653 75.277499 M124.933944 58.785491 L146.362386 48.958106 M167.557665 45.967867 L186.138283 49.457912 M200.000000 58.578644 "  style="fill:none;stroke:black;stroke-width:1;stroke-linecap:round;stroke-linejoin:round" />
  <path d="M368.789206 304.847422 M351.631455 315.582814 L326.267701 322.655497 M294.279347 324.722501 L257.777375 320.818424 M219.226754 310.446149 L181.240689 293.627688 M146.362386 270.910670 L116.853039 243.329860 M94.504252 212.326917 L80.490968 179.635234 M75.277499 147.139674 L78.584696 116.723214 M89.420998 90.113597 L106.174633 68.743131 M126.758958 53.633610 L148.798354 45.316208 M169.838628 43.793144 L187.563717 48.544374 M200.000000 58.578644 "  style="fill:none;stroke:black;stroke-width:1;stroke-linecap:round;stroke-linejoin:round" />
  <path d="M359.133362 316.238772 M338.703985 325.668466 L310.579002 330.883061 M276.536686 330.656296 L238.830182 324.174370 M200.000000 311.114047 L162.662040 291.678985 M129.289322 266.591068 L102.006160 237.037404 M82.412440 204.577465 L71.453060 171.018283 M69.343704 138.268343 L75.559281 108.182685 M88.885953 82.412440 L107.532204 62.271692 M129.289322 48.633025 L151.727422 41.860679 M172.410062 41.786983 L189.108919 47.734030 M200.000000 58.578644 "  style="fill:none;stroke:black;stroke-width:1;stroke-linecap:round;stroke-linejoin:round" />
  <path d="M362.957801 315.710562 L347.944977 326.906038 M324.440719 334.809568 L293.825367 337.983645 M258.056935 335.331800 L219.509032 326.200953 M180.773246 310.446149 L144.442977 288.452005 M112.897241 261.108956 L88.103015 229.746231 M71.453060 196.027263 L63.653129 161.816421 M64.668200 129.028468 L73.732299 99.473593 M89.420998 74.711282 L109.780290 55.925506 M132.500669 43.831896 L155.121382 38.624800 M175.247202 39.968705 L190.759008 47.034683 M200.000000 58.578644 "  style="fill:none;stroke:black;stroke-width:1;stroke-linecap:round;stroke-linejoin:round" />
  <path d="M353.635551 326.708359 L335.331800 336.746486 M308.979021 342.918086 L276.168141 343.888868 M239.018064 338.703985 L200.000000 326.878657 M161.731657 308.448888 L126.758958 283.977827 M97.344007 254.517130 L75.277499 221.526561 M61.731657 186.758652 L57.166293 152.118266 M61.296015 119.509032 L73.121343 90.679813 M91.020979 67.084292 L112.897241 49.765691 M136.362071 39.276459 L158.947547 35.639732 M178.322725 38.355820 L192.498093 46.453070 M200.000000 58.578644 "  style="fill:none;stroke:black;stroke-width:1;stroke-linecap:round;stroke-linejoin:round" />
  <path d="M342.833707 337.007087 L321.415304 345.665349 M292.467796 349.915931 L257.777375 348.541857 M219.603428 340.740374 L180.490968 326.200953 M143.058612 305.141500 L109.780290 278.299540 M82.779406 246.879073 L63.653129 212.457551 M53.341854 176.860896 L52.055023 142.017216 M59.259626 109.801714 L73.732299 81.886033 M93.670487 59.604919 L116.853039 43.851569 M140.836341 35.010586 L163.169070 32.934225 M181.607012 36.963863 L194.309425 45.994790 M200.000000 58.578644 "  style="fill:none;stroke:black;stroke-width:1;stroke-linecap:round;stroke-linejoin:round" />
  <path d="M346.658146 335.957675 M330.656296 346.507563 L306.329513 353.576732 M275.066056 355.735710 L238.830182 351.897804 M200.000000 341.421356 L161.169818 324.174370 M124.933944 300.555834 L93.670487 271.471827 M69.343704 238.268343 L53.341854 202.626543 M46.364449 166.429315 L48.368545 131.610552 M58.578644 100.000000 L75.559281 73.176942 M97.344007 52.345195 L121.609588 38.240095 M145.880390 31.075360 L167.745295 30.534333 M185.068433 35.806237 L196.175561 45.664258 M200.000000 58.578644 "  style="fill:none;stroke:black;stroke-width:1;stroke-linecap:round;stroke-linejoin:round" />
  <path d="M336.346871 345.788683 M317.220594 355.118293 L290.219710 360.404445 M256.941388 360.321375 L219.509032 353.924387 M180.396572 340.740374 L142.222625 320.818424 M107.532204 294.736055 L78.584696 263.560443 M57.166293 228.767867 L44.442977 192.128214 M40.866638 155.564371 L46.142361 120.998493 M59.259626 90.198286 L78.584696 64.636413 M102.006160 45.375036 L127.121079 32.985311 M151.445640 27.508679 L172.632150 28.463169 M188.673654 34.894091 L198.078528 45.464657 M200.000000 58.578644 "  style="fill:none;stroke:black;stroke-width:1;stroke-linecap:round;stroke-linejoin:round" />
  <path d="M324.722501 354.857692 M302.655993 362.756350 L273.241042 366.082733 M238.268343 363.628764 L200.000000 354.602091 M160.981936 338.703985 L123.831859 316.165434 M91.020979 287.738210 L64.668200 254.641581 M46.364449 218.469139 L37.042199 181.063669 M36.901369 144.370699 L45.397909 110.283241 M61.296015 80.490968 L82.779406 56.346696 M107.612047 38.761567 L133.334434 28.137825 M157.478495 24.344892 L177.782573 26.740679 M192.387953 34.236210 L200.000000 45.397909 M200.000000 58.578644 "  style="fill:none;stroke:black;stroke-width:1;stroke-linecap:round;stroke-linejoin:round" />
  <path d="M311.896985 363.077363 M287.102759 369.348176 L255.557023 370.556911 M219.226754 365.626025 L180.490968 353.924387 M141.943065 335.331800 L106.174633 310.260211 M75.559281 279.629692 L52.055023 244.801132 M37.042199 207.471342 L31.210794 169.539465 M34.506828 132.956101 L46.142361 99.567989 M64.668200 70.971532 L88.103015 48.387626 M114.107680 32.568479 L140.189815 23.744319 M163.920856 21.614469 L183.146961 25.383452 M196.175561 33.838931 L201.921472 45.464657 M200.000000 58.578644 "  style="fill:none;stroke:black;stroke-width:1;stroke-linecap:round;stroke-linejoin:round" />
  <path d="M317.587560 361.716457 L297.993840 370.368536 M270.710678 374.830288 L237.337960 373.783890 M200.000000 366.293922 L161.169818 351.897804 M123.463314 330.656296 L89.420998 303.159627 M61.296015 270.488590 L40.866638 234.133867 M29.289322 195.880390 L27.004921 157.666587 M33.706078 121.430504 L48.368545 88.955931 M69.343704 61.731657 L94.504252 40.835853 M121.430504 26.855416 L147.621201 19.847107 M170.710678 19.343704 L188.673654 24.404558 M200.000000 33.706078 L203.824439 45.664258 M200.000000 58.578644 "  style="fill:none;stroke:black;stroke-width:1;stroke-linecap:round;stroke-linejoin:round" />
  <path d="M305.495748 369.465909 L283.146961 376.660992 M253.637614 379.149890 L218.759311 375.732593 M180.773246 365.626025 L142.222625 348.541857 M105.720653 324.722501 L73.732299 294.932063 M48.368545 260.402938 L31.210794 222.742516 M23.180482 183.807911 L24.465086 145.559377 M34.506828 109.904908 L52.055023 78.549266 M75.277499 52.860326 L101.921472 33.764104 M129.509995 21.677398 L155.557023 16.483719 M177.782573 17.554466 L194.309425 23.813426 M203.824439 33.838931 L205.690575 45.994790 M200.000000 58.578644 "  style="fill:none;stroke:black;stroke-width:1;stroke-linecap:round;stroke-linejoin:round" />
  <path d="M292.387953 376.339979 L267.499331 381.894132 M236.047991 382.265382 L200.000000 376.384253 M161.731657 363.628764 L123.831859 343.888868 M88.885953 317.587560 L59.259626 285.656756 M36.901369 249.469867 L23.180482 210.736785 M18.774511 171.370169 L23.615747 133.334434 M36.901369 98.490309 L57.166293 68.448217 M82.412440 44.442977 L110.283241 27.240485 M138.268343 17.084292 L163.920856 13.686547 M185.068433 16.263987 L200.000000 23.615747 M207.612047 34.236210 L207.501907 46.453070 M200.000000 58.578644 "  style="fill:none;stroke:black;stroke-width:1;stroke-linecap:round;stroke-linejoin:round" />
  <path d="M278.390412 382.272466 L251.201646 386.017558 M218.111206 384.146761 L181.240689 375.732593 M143.058612 360.321375 L106.174633 337.983645 M73.121343 309.320187 L46.142361 275.423031 M27.004921 237.794668 L16.853039 198.232295 M16.113840 158.686947 L24.465086 121.109491 M40.866638 87.296637 L63.653129 58.750062 M90.679813 36.560672 L119.509032 21.327821 M147.621201 13.120331 L172.632150 11.482530 M192.498093 15.484694 L205.690575 23.813426 M211.326346 34.894091 L209.240992 47.034683 M200.000000 58.578644 "  style="fill:none;stroke:black;stroke-width:1;stroke-linecap:round;stroke-linejoin:round" />
  <path d="M285.892320 380.613172 M263.637929 387.206236 L234.410861 388.991559 M200.000000 384.775907 L162.662040 373.783890 M124.933944 355.735710 L89.420998 330.883061 M58.578644 300.000000 L34.506828 264.329445 M18.774511 225.489779 L12.289401 185.349472 M15.224093 145.880390 L27.004921 109.002281 M46.364449 76.431693 L71.453060 49.548200 M100.000000 29.289322 L129.509995 16.083055 M157.478495 9.823691 L181.607012 9.892893 M200.000000 15.224093 L211.326346 24.404558 M214.931567 35.806237 L210.891081 47.734030 M200.000000 58.578644 "  style="fill:none;stroke:black;stroke-width:1;stroke-linecap:round;stroke-linejoin:round" />
  <path d="M272.878921 386.128556 M248.272578 391.093775 L217.288680 390.787494 M181.888794 384.146761 L144.442977 370.556911 M107.532204 349.915931 L73.732299 322.655497 M45.397909 289.716759 L24.465086 252.482836 M12.289401 212.673703 L9.533519 172.212383 M16.113840 133.073833 L31.210794 97.129403 M53.341854 66.000112 L80.490968 40.931249 M110.283241 22.698955 L140.189815 11.556696 M167.745295 7.226120 L190.759008 8.932946 M207.501907 15.484694 L216.853039 25.383452 M218.392988 36.963863 L212.436283 48.544374 M200.000000 58.578644 "  style="fill:none;stroke:black;stroke-width:1;stroke-linecap:round;stroke-linejoin:round" />
  <path d="M259.163659 390.715442 M232.442335 393.897644 L200.000000 391.388067 M163.952009 382.265382 L126.758958 366.082733 M91.020979 342.918086 L59.259626 313.380190 M33.706078 278.569496 L16.113840 239.997292 M7.612047 199.469867 L8.611933 158.947547 M18.774511 120.390611 L37.042199 85.605199 M61.731657 56.102356 L90.679813 32.982196 M121.430504 16.853039 L151.445640 7.792336 M178.322725 5.352635 L200.000000 8.611933 M214.931567 16.263987 L222.217427 26.740679 M221.677275 38.355820 L213.861717 49.457912 M200.000000 58.578644 "  style="fill:none;stroke:black;stroke-width:1;stroke-linecap:round;stroke-linejoin:round" />
  <path d="M244.878618 394.329655 M216.299655 395.590840 L182.711320 390.787494 M146.362386 379.149890 L109.780290 360.404445 M75.559281 334.809568 L46.142361 303.146465 M23.615747 266.665566 L9.533519 226.993057 M4.787494 186.005430 L9.533519 145.682711 M23.180482 107.952869 L44.442977 74.540654 M71.453060 46.833746 L101.921472 25.777594 M133.334434 11.807874 L163.169070 4.826228 M189.108919 4.221278 L209.240992 8.932946 M222.217427 17.554466 L227.367850 28.463169 M224.752798 39.968705 L215.153655 50.465846 M200.000000 58.578644 "  style="fill:none;stroke:black;stroke-width:1;stroke-linecap:round;stroke-linejoin:round" />
  <path d="M230.161372 396.936389 M200.000000 396.157056 L165.589139 388.991559 M129.289322 374.830288 L93.670487 353.576732 M61.296015 325.668466 L34.506828 292.052879 M15.224093 254.119610 L4.787494 213.595368 M3.842944 172.410062 L12.289401 132.545623 M29.289322 95.880390 M145.880390 7.612047 L175.247202 2.686937 M200.000000 3.842944 L218.392988 9.892893 M229.289322 19.343704 L232.254705 30.534333 M227.589938 41.786983 L216.299655 51.558469 M200.000000 58.578644 "  style="fill:none;stroke:black;stroke-width:1;stroke-linecap:round;stroke-linejoin:round" />
  <path d="M215.153655 398.510539 M183.700345 395.590840 L148.798354 386.017558 M112.897241 369.348176 L78.584696 345.665349 M48.368545 315.582814 L24.465086 280.206270 M8.611933 241.052453 L1.921472 199.933252 M4.787494 158.814694 L16.853039 119.662799 M158.947547 4.305966 L187.563717 1.395065 M210.891081 4.221278 L227.367850 11.482530 M236.079144 21.614469 L236.830930 32.934225 M230.161372 43.793144 L217.288680 52.725258 M200.000000 58.578644 "  style="fill:none;stroke:black;stroke-width:1;stroke-linecap:round;stroke-linejoin:round" />
  <path d="M200.000000 399.036945 M167.557665 393.897644 L132.500669 381.894132 M97.344007 362.756350 L64.668200 336.746486 M36.901369 304.649743 L16.113840 267.720726 M3.842944 227.589938 L0.963055 186.138283 M7.612047 145.350257 M172.410062 1.921472 L200.000000 0.963055 M221.677275 5.352635 L236.079144 13.686547 M242.521505 24.344892 L241.052453 35.639732 M232.442335 45.967867 L218.111206 53.954977 M200.000000 58.578644 "  style="fill:none;stroke:black;stroke-width:1;stroke-linecap:round;stroke-linejoin:round" />
  <path d="M184.846345 398.510539 M151.727422 391.093775 L116.853039 376.660992 M82.779406 355.118293 L52.055023 326.906038 M27.004921 292.974544 L9.533519 254.716491 M0.963055 213.861717 L1.921472 172.343314 M186.138283 0.481527 L212.436283 1.395065 M232.254705 7.226120 L244.442977 16.483719 M248.554360 27.508679 L244.878618 38.624800 M234.410861 48.290209 L218.759311 55.235782 M200.000000 58.578644 "  style="fill:none;stroke:black;stroke-width:1;stroke-linecap:round;stroke-linejoin:round" />
</svg>
