<?xml version="1.0" encoding="UTF-8" standalone="no"?>
<!-- Created with Inkscape (http://www.inkscape.org/) -->

<svg
   xmlns:dc="http://purl.org/dc/elements/1.1/"
   xmlns:cc="http://creativecommons.org/ns#"
   xmlns:rdf="http://www.w3.org/1999/02/22-rdf-syntax-ns#"
   xmlns:svg="http://www.w3.org/2000/svg"
   xmlns="http://www.w3.org/2000/svg"
   version="1.1"
   width="422"
   height="420.875"
   id="svg2">
  <metadata
     id="metadata28">
    <rdf:RDF>
      <cc:Work
         rdf:about="">
        <dc:format>image/svg+xml</dc:format>
        <dc:type
           rdf:resource="http://purl.org/dc/dcmitype/StillImage" />
        <dc:title></dc:title>
      </cc:Work>
    </rdf:RDF>
  </metadata>
  <defs
     id="defs26" />
  <g
     transform="matrix(2,0,0,2,211,210.4375)"
     id="g3005">
    <path
       d="m 0,70.710678 3.116308,0.243483 2.965476,0.721159 2.668186,1.171213 2.233065,1.576063 1.672779,1.919354 1.003696,2.186401 0.245464,2.364595 -0.579503,2.443759 -1.446607,2.416424 -2.329714,2.278069 -3.201834,2.027245 -4.035843,1.665655 -4.805185,1.198136 -5.484596,0.632563 -6.05077,-0.02033 -6.482996,-0.747179 -6.763729,-1.532338 -6.879082,-2.358225 -6.81923,-3.205771 -6.578711,-4.054877 -6.156629,-4.884924 -5.556729,-5.67528 -4.78737,-6.405823 -3.861371,-7.057457 L -70.710678,50 l -1.611371,-8.05562 -0.332446,-8.373296 1.013985,-8.555121 2.398698,-8.593622 3.790962,-8.484573 5.159271,-8.227133 6.472092,-7.823911 7.698623,-7.280942 8.80954,-6.607573 9.777708,-5.816289 10.578848,-4.922434 11.192139,-3.943886 11.600744,-2.900656 11.792233,-1.814438 11.758915,-0.708114 11.498054,0.394771 11.011964,1.470547 10.307995,2.495972 9.398383,3.44877 8.300006,4.308147 7.034009,5.055284 5.625337,5.673766 4.102177,6.149981 2.495327,6.473421 L 100,0 l -0.837485,6.636949 -2.495327,6.473421 -4.102178,6.149981 -5.625336,5.673766 -7.034009,5.055284 -8.300006,4.308147 -9.398383,3.44877 L 51.899281,40.24229 40.887316,41.712837 29.389263,42.107608 17.630348,41.399494 5.838115,39.585056 -5.762629,36.6844 -16.954768,32.740514 -27.533616,27.81808 l -9.777708,-5.816289 -8.80954,-6.607573 -7.698624,-7.280942 -6.472091,-7.823911 -5.159271,-8.227133 -3.790962,-8.484573 -2.398698,-8.593622 -1.013985,-8.555121 0.332446,-8.373296 1.611371,-8.05562 2.795753,-7.612595 3.861371,-7.057457 4.78737,-6.405823 5.556729,-5.67528 6.156629,-4.884924 6.578711,-4.054877 6.81923,-3.205771 6.879082,-2.358225 6.763729,-1.532338 6.482996,-0.747179 6.05077,-0.02033 5.484596,0.632563 4.805185,1.198136 4.035843,1.665655 3.201834,2.027245 2.329714,2.278069 1.446607,2.416424 0.579503,2.443759 -0.245464,2.364595 -1.003696,2.186401 -1.672779,1.919354 -2.233065,1.576063 -2.668186,1.171213 -2.965476,0.721159 L 0,-70.710678"
       id="path4"
       style="fill:none;stroke:#000000;stroke-width:1" />
    <path
       d="m 0,70.710678 2.289746,1.48554 1.712672,1.795977 1.040158,2.023215 0.293854,2.156631 -0.502339,2.188266 -1.322915,2.113059 -2.141443,1.928989 -2.93127,1.637148 -3.666235,1.241734 -4.321378,0.749961 -4.873609,0.171888 -5.302341,-0.47982 -5.590059,-1.190201 -5.722816,-1.942373 -5.690628,-2.717948 -5.487793,-3.497503 -5.113078,-4.261069 -4.569807,-4.988641 -3.865837,-5.660696 -3.013407,-6.258695 -2.028885,-6.765569 -0.932404,-7.166177 0.252592,-7.447702 1.499902,-7.600011 2.78118,-7.615944 4.066614,-7.49152 5.325647,-7.226093 6.527715,-6.822394 7.643,-6.286513 8.643164,-5.627796 9.502055,-4.85865 10.196366,-3.994285 10.706223,-3.052374 11.015706,-2.052666 11.113266,-1.016526 10.992046,0.03354 10.65009,1.07443 10.090432,2.082955 9.321072,3.036405 8.354832,3.913078 7.209089,4.692792 5.905408,5.357363 4.469069,5.891045 2.928508,6.280909 1.314672,6.517148 -0.339676,6.593326 -2.000703,6.506537 -3.634277,6.257482 -5.20675,5.850464 -6.685729,5.293298 -8.040806,4.597135 -9.244275,3.776214 -10.27174,2.84753 -11.102689,1.830455 -11.720941,0.746279 -12.11502,-0.382265 -12.278396,-1.531534 -12.209616,-2.677514 -11.912325,-3.796376 -11.395154,-4.86501 -10.671492,-5.861565 -9.75916,-6.765934 -8.679967,-7.560209 -7.459171,-8.229079 -6.124889,-8.760166 -4.707398,-9.144284 -3.23843,-9.37563 -1.750411,-9.451885 -0.275699,-9.374236 1.154181,-9.147314 2.509259,-8.779048 3.761825,-8.28044 4.887052,-7.665272 5.863555,-6.949746 6.673868,-6.152063 7.304804,-5.291962 7.747731,-4.390232 7.99872,-3.468181 8.058572,-2.547125 7.93275,-1.647848 7.631171,-0.790116 7.167908,0.0078 6.560782,0.729623 5.830866,1.361308 5.001914,1.891512 4.099723,2.311778 3.151447,2.616718 2.184894,2.804128 1.22779,2.87499 L 25,-80.09343 l -0.551823,2.686544 -1.325576,2.444232 -1.993614,2.118862 -2.538611,1.724947 -2.94693,1.278733 -3.208952,0.797762 -3.319321,0.300386 L 5.838115,-68.936688 2.752546,-69.605775 0,-70.710678"
       id="path6"
       style="fill:none;stroke:#000000;stroke-width:1" />
    <path
       d="m 0,70.710678 0.588579,2.146843 -0.194314,2.144825 -0.985176,2.035847 -1.7576,1.820331 -2.48558,1.501783 -3.144217,1.086722 -3.710391,0.584513 -4.163391,0.0071 -4.485486,-0.631147 L -25,80.09343 l -4.68383,-2.023962 -4.543525,-2.741936 -4.239721,-3.448622 -3.775113,-4.12455 -3.156861,-4.750684 -2.39644,-5.308929 -1.509404,-5.782603 -0.515021,-6.156896 0.564173,-6.419263 1.702916,-6.559783 2.873825,-6.571443 4.048067,-6.450344 5.196072,-6.195855 6.288264,-5.810658 7.295797,-5.300728 8.191291,-4.675231 8.949524,-3.946331 9.548079,-3.128933 9.967936,-2.240349 L 25,-12.843579 l 10.215378,-0.328512 10.025975,0.651857 9.624409,1.618648 9.014246,2.549274 8.203934,3.421657 7.206657,4.214747 6.040068,4.909043 4.725918,5.487054 3.289579,5.933739 1.759488,6.236873 0.166496,6.387354 -1.456814,6.37944 -3.076888,6.210903 -4.659958,5.883104 -6.172823,5.400973 -7.583616,4.772927 -8.862541,4.010675 -9.982562,3.128973 -10.920027,2.14529 -11.65522,1.079411 -12.172814,-0.047 L 6.266662,65.991933 -6.251185,63.60349 -18.590376,60.048104 -30.521248,55.36031 l -11.302509,-5.762511 -10.468478,-6.757694 -9.447579,-7.653318 -8.262583,-8.43162 -6.939691,-9.077494 -5.507922,-9.578833 -3.998421,-9.926779 -2.443737,-10.115912 -0.877054,-10.144351 0.66857,-10.013771 2.160978,-9.729332 3.569651,-9.299531 4.866398,-8.735977 6.026002,-8.053087 7.026773,-7.267716 7.851029,-6.398742 8.485458,-5.466591 8.921402,-4.49274 9.154986,-3.499192 9.187174,-2.507942 9.023667,-1.540448 8.674722,-0.617125 8.15483,0.243143 7.482315,1.02344 6.67883,1.709205 5.768783,2.288563 4.778689,2.752581 3.736486,3.09545 2.67081,3.314592 1.610272,3.410681 0.582721,3.387583 -0.385447,3.252216 -1.269953,3.014338 -2.049237,2.68626 -2.704988,2.282496 -3.222581,1.819364 -3.591434,1.314534 -3.805238,0.786559 -3.862096,0.254365 -3.764536,-0.263246 L 9.1364,-64.086374 5.99869,-65.26951 3.364484,-66.822364 1.337405,-68.666097 0,-70.710678"
       id="path8"
       style="fill:none;stroke:#000000;stroke-width:1" />
    <path
       d="m 0,70.710678 -1.337405,1.974798 -2.027079,1.634453 -2.634206,1.204284 -3.13771,0.695619 -3.519414,0.122118 -3.764536,-0.500584 -3.862096,-1.155288 -3.805238,-1.823687 -3.591434,-2.486843 -3.222581,-3.125697 -2.704988,-3.721564 -2.049237,-4.256643 -1.269953,-4.714485 -0.385447,-5.080451 0.582721,-5.342101 1.610272,-5.489553 2.67081,-5.515767 3.736486,-5.416754 4.778689,-5.191724 5.768783,-4.843139 6.67883,-4.376693 7.482315,-3.801205 8.15483,-3.128446 8.674722,-2.372868 9.023667,-1.551284 9.187174,-0.682478 9.154986,0.213233 8.921402,1.114485 8.485458,1.999372 7.851029,2.845982 7.026773,3.632922 6.026002,4.339846 4.866398,4.947953 3.569651,5.440461 2.160978,5.803026 0.66857,6.024104 -0.877054,6.09526 -2.443737,6.011392 -3.998421,5.770881 -5.507922,5.375659 -6.939691,4.831193 -8.262583,4.14638 -9.447579,3.33337 L 41.823757,76.097516 30.521248,77.483481 18.590376,77.772897 6.251185,76.912412 -6.266662,74.871851 -18.728885,71.645 -30.901699,67.249851 -42.55692,61.728288 -53.476946,55.14523 l -9.982562,-7.557979 -8.862541,-8.426545 -7.583616,-9.171305 -6.172823,-9.777519 -4.659958,-10.233497 -3.076888,-10.530851 -1.456814,-10.66468 0.166496,-10.633655 1.759488,-10.440047 3.289579,-10.089637 4.725918,-9.591574 6.040068,-8.958134 7.206657,-8.204414 8.203934,-7.347963 9.014246,-6.408344 9.624409,-5.406672 10.025975,-4.365099 L -25,-95.968966 l 10.193972,-2.25285 9.967935,-1.22687 9.548079,-0.249323 8.949524,0.660372 8.191291,1.484811 7.295797,2.208997 6.288264,2.820664 5.196072,3.310552 4.048067,3.672579 2.873825,3.903955 1.702916,4.005208 0.564173,3.980119 -0.515021,3.835591 -1.509404,3.581429 -2.39644,3.230056 -3.156861,2.796167 -3.775113,2.296315 -4.239721,1.748474 -4.543525,1.171554 -4.68383,0.584894 -4.662424,0.0078 -4.485486,-0.541161 -4.163391,-1.044257 -3.710391,-1.485436 -3.144217,-1.850552 -2.48558,-2.127765 -1.7576,-2.307847 -0.985176,-2.384418 -0.194314,-2.354104 L 0,-70.710678"
       id="path10"
       style="fill:none;stroke:#000000;stroke-width:1" />
    <path
       d="m 0,70.710678 -2.752546,1.03512 -3.085569,0.459807 -3.277058,-0.153846 -3.319321,-0.787903 -3.208953,-1.423744 -2.946929,-2.042562 -2.538611,-2.62587 -1.993614,-3.155989 L -24.448177,58.39915 -25,54.406272 l 0.307068,-4.272493 1.22779,-4.445372 2.184894,-4.504276 3.151447,-4.444953 4.099723,-4.266296 5.001914,-3.970384 5.830867,-3.562482 6.560781,-3.050927 7.167908,-2.446959 7.631171,-1.76446 7.93275,-1.019639 8.058572,-0.230642 7.99872,0.582879 7.747731,1.400239 7.304804,2.20023 6.673868,2.961643 5.863555,3.663787 4.887052,4.287017 3.761825,4.813221 2.509259,5.226289 1.154181,5.51252 -0.275699,5.660994 -1.750411,5.663861 -3.23843,5.51656 -4.707398,5.217978 -6.124889,4.770499 -7.459172,4.179988 -8.679966,3.455688 -9.75916,2.610037 -10.671492,1.658391 -11.395154,0.618709 -11.912325,-0.488864 -12.209616,-1.642433 -12.278396,-2.81886 -12.11502,-3.994281 -11.720941,-5.144657 -11.102689,-6.246325 -10.27174,-7.276536 -9.244275,-8.213982 -8.040806,-9.039287 -6.685729,-9.73545 -5.20675,-10.288232 -3.634277,-10.686487 -2.000703,-10.922408 -0.339676,-10.991704 1.314672,-10.893693 2.928508,-10.631303 4.469069,-10.210993 5.905408,-9.642603 7.209089,-8.939093 8.354832,-8.116252 9.321072,-7.192303 10.090432,-6.187474 10.65009,-5.123522 10.992046,-4.023209 11.113266,-2.90978 11.015706,-1.806404 10.706223,-0.73565 10.196366,0.281043 9.502055,1.223857 8.643164,2.075037 7.643,2.819294 6.527715,3.444138 5.325647,3.940134 4.066614,4.3011 2.78118,4.524212 1.499902,4.610018 0.252592,4.562399 -0.932404,4.388411 -2.028885,4.098083 -3.013407,3.704118 -3.865837,3.221552 -4.569807,2.667337 -5.113078,2.059894 -5.487793,1.418632 -5.690628,0.76343 -5.722816,0.114138 -5.590059,-0.509947 -5.302341,-1.090563 -4.873609,-1.610955 -4.321378,-2.056294 -3.666235,-2.414044 -2.93127,-2.674275 -2.141443,-2.829912 -1.322915,-2.876889 -0.502339,-2.814248 0.293854,-2.644147 1.040158,-2.371786 1.712672,-2.005256 L 0,-70.710678"
       id="path12"
       style="fill:none;stroke:#000000;stroke-width:1" />
    <path
       d="m 0,70.710678 -3.116308,-0.313266 -2.965476,-0.930438 -2.668186,-1.519783 -2.233065,-2.06358 -1.672779,-2.545336 -1.003696,-2.950231 -0.245464,-3.265518 0.579503,-3.480886 1.446607,-3.588734 2.329714,-3.584402 3.201834,-3.466312 4.035843,-3.236038 4.805185,-2.898284 5.484596,-2.460798 6.05077,-1.93419 6.482996,-1.331693 6.763729,-0.668836 6.879082,0.03692 6.81923,0.766626 6.578711,1.500302 6.156629,2.217437 5.556729,2.897514 4.78737,3.52052 3.861371,4.067464 L 70.710678,50 l 1.611371,4.8652 0.332446,5.087337 -1.013985,5.176865 -2.398698,5.126404 -3.790962,4.931813 -5.159271,4.592339 -6.472092,4.11067 -7.698623,3.492917 -8.80954,2.748504 -9.777708,1.889983 -10.578848,0.932767 -11.192139,-0.105206 -11.600744,-1.203863 -11.792233,-2.34146 -11.758915,-3.49506 -11.498054,-4.641072 -11.011964,-5.755787 -10.307995,-6.81592 -9.398383,-7.799163 -8.300006,-8.684693 -7.034009,-9.453662 -5.625337,-10.089637 -4.102177,-10.578985 -2.495327,-10.91119 L -100,0 l 0.837485,-11.079101 2.495327,-10.91119 4.102178,-10.578985 5.625336,-10.089637 7.034009,-9.453662 8.300006,-8.684693 9.398383,-7.799163 10.307995,-6.81592 11.011965,-5.755787 11.498053,-4.641072 11.758915,-3.49506 11.792233,-2.34146 11.600744,-1.203863 11.192139,-0.105206 10.578848,0.932767 9.777708,1.889983 8.80954,2.748504 7.698624,3.492917 6.472091,4.11067 5.159271,4.592339 3.790962,4.931813 2.398698,5.126404 1.013985,5.176865 -0.332446,5.087337 -1.611371,4.8652 -2.795753,4.520863 -3.861371,4.067464 -4.78737,3.52052 -5.556729,2.897514 -6.156629,2.217437 -6.578711,1.500302 -6.81923,0.766626 -6.879082,0.03692 -6.763729,-0.668836 -6.482996,-1.331693 -6.05077,-1.93419 -5.484596,-2.460798 -4.805185,-2.898284 -4.035843,-3.236038 -3.201834,-3.466312 -2.329714,-3.584402 -1.446607,-3.588734 -0.579503,-3.480886 0.245464,-3.265518 1.003696,-2.950231 1.672779,-2.545336 2.233065,-2.06358 2.668186,-1.519783 2.965476,-0.930438 L 0,-70.710678"
       id="path14"
       style="fill:none;stroke:#000000;stroke-width:1" />
    <path
       d="m 0,70.710678 -2.289746,-1.555323 -1.712672,-2.005256 -1.040158,-2.371786 -0.293854,-2.644147 0.502339,-2.814248 1.322915,-2.876889 2.141443,-2.829912 2.93127,-2.674275 3.666235,-2.414044 4.321378,-2.056294 4.873609,-1.610955 5.302341,-1.090563 5.590059,-0.509947 5.722816,0.114138 5.690628,0.76343 5.487793,1.418632 5.113078,2.059894 4.569807,2.667337 3.865837,3.221552 3.013407,3.704118 2.028885,4.098083 0.932404,4.388411 -0.252592,4.562399 -1.499902,4.610018 -2.78118,4.524212 -4.066614,4.3011 -5.325647,3.940134 -6.527715,3.444138 -7.643,2.819294 L 25,95.968966 15.497945,97.192823 5.301579,97.473866 -5.404644,96.738216 -16.42035,94.931812 l -11.113266,-2.90978 -10.992046,-4.023209 -10.65009,-5.123522 -10.090432,-6.187474 -9.321072,-7.192303 -8.354832,-8.116252 -7.209089,-8.939093 -5.905408,-9.642603 -4.469069,-10.210993 -2.928508,-10.631303 -1.314672,-10.893693 0.339676,-10.991704 2.000703,-10.922408 3.634277,-10.686487 5.20675,-10.288232 6.685729,-9.73545 8.040806,-9.039287 9.244275,-8.213982 10.27174,-7.276536 11.102689,-6.246325 11.720941,-5.144657 12.11502,-3.994281 12.278396,-2.81886 12.209616,-1.642433 11.912325,-0.488864 11.395154,0.618709 10.671492,1.658391 9.75916,2.610037 8.679967,3.455688 7.459171,4.179988 6.124889,4.770499 4.707398,5.217978 3.23843,5.516561 1.750411,5.66386 0.275699,5.660994 -1.154181,5.51252 -2.509259,5.226289 -3.761825,4.813221 -4.887052,4.287017 -5.863555,3.663787 -6.673868,2.961643 -7.304804,2.20023 -7.747731,1.400239 -7.99872,0.582879 -8.058572,-0.230642 -7.93275,-1.019639 -7.631171,-1.76446 -7.167908,-2.446959 -6.560782,-3.050927 -5.830866,-3.562482 -5.001914,-3.970384 -4.099723,-4.266296 -3.151447,-4.444953 -2.184894,-4.504276 -1.22779,-4.445372 L -25,-54.406273 l 0.551823,-3.992877 1.325576,-3.616541 1.993614,-3.155989 2.538611,-2.62587 2.94693,-2.042562 3.208952,-1.423744 3.319321,-0.787903 3.277058,-0.153846 3.085569,0.459807 L 0,-70.710678"
       id="path16"
       style="fill:none;stroke:#000000;stroke-width:1" />
    <path
       d="m 0,70.710678 -0.588579,-2.216626 0.194314,-2.354104 0.985176,-2.384418 1.7576,-2.307847 2.48558,-2.127765 3.144217,-1.850552 3.710391,-1.485436 4.163391,-1.044257 4.485486,-0.541161 4.662424,0.0078 4.68383,0.584894 4.543525,1.171554 4.239721,1.748474 3.775113,2.296315 3.156861,2.796167 2.39644,3.230056 1.509404,3.581429 0.515021,3.835591 -0.564173,3.980119 -1.702916,4.005208 -2.873825,3.903955 -4.048067,3.672579 -5.196072,3.310552 -6.288264,2.820664 -7.295797,2.208997 -8.191291,1.484811 -8.949524,0.660372 -9.548079,-0.249323 -9.967936,-1.22687 L -25,95.968966 l -10.215378,-3.306281 -10.025975,-4.365099 -9.624409,-5.406672 -9.014246,-6.408344 -8.203934,-7.347963 -7.206657,-8.204414 -6.040068,-8.958134 -4.725918,-9.591574 -3.289579,-10.089637 -1.759488,-10.440047 -0.166496,-10.633656 1.456814,-10.664679 3.076888,-10.530851 4.659958,-10.233497 6.172823,-9.777519 7.583616,-9.171305 8.862541,-8.426546 9.982562,-7.557978 10.920027,-6.583058 11.65522,-5.521563 12.172814,-4.395149 12.462223,-3.226851 12.517847,-2.040561 12.339191,-0.860485 11.930872,0.289416 11.302509,1.385965 10.468478,2.407301 9.447579,3.33337 8.262583,4.14638 6.939691,4.831193 5.507922,5.375659 3.998421,5.770881 2.443737,6.011392 0.877054,6.09526 -0.66857,6.024104 -2.160978,5.803026 -3.569651,5.440461 -4.866398,4.947953 -6.026002,4.339846 -7.026773,3.632922 -7.851029,2.845982 -8.485458,1.999372 -8.921402,1.114485 -9.154986,0.213233 -9.187174,-0.682478 -9.023667,-1.551284 -8.674722,-2.372868 -8.15483,-3.128446 -7.482315,-3.801206 -6.67883,-4.376692 -5.768783,-4.843139 -4.778689,-5.191724 -3.736486,-5.416754 -2.67081,-5.515767 -1.610272,-5.489553 -0.582721,-5.342101 0.385447,-5.080451 1.269953,-4.714485 2.049237,-4.256643 2.704988,-3.721564 3.222581,-3.125697 3.591434,-2.486843 3.805238,-1.823687 3.862096,-1.155288 3.764536,-0.500584 3.519414,0.122118 3.13771,0.695619 2.634206,1.204284 2.027079,1.634453 L 0,-70.710678"
       id="path18"
       style="fill:none;stroke:#000000;stroke-width:1" />
    <path
       d="M 0,70.710678 1.337405,68.666097 3.364484,66.822364 5.99869,65.26951 9.1364,64.086374 l 3.519414,-0.748099 3.764536,-0.263246 3.862096,0.254365 3.805238,0.786559 3.591434,1.314535 3.222581,1.819363 2.704988,2.282496 2.049237,2.68626 1.269953,3.014338 0.385447,3.252216 -0.582721,3.387583 -1.610272,3.410681 -2.67081,3.314592 -3.736486,3.09545 -4.778689,2.752581 -5.768783,2.288563 -6.67883,1.709205 -7.482315,1.02344 -8.15483,0.243143 -8.674722,-0.617125 -9.023667,-1.540448 -9.187174,-2.507942 -9.154986,-3.499192 -8.921402,-4.49274 -8.485459,-5.466591 -7.851028,-6.398742 -7.026773,-7.267716 -6.026002,-8.053087 -4.866398,-8.735977 -3.569651,-9.299532 -2.160978,-9.729331 -0.66857,-10.013771 0.877054,-10.144352 2.443737,-10.115911 3.998421,-9.926779 5.507922,-9.578833 6.939691,-9.077494 8.262583,-8.43162 9.447579,-7.653318 10.468478,-6.757694 11.302509,-5.762511 11.930872,-4.687794 12.339191,-3.555386 12.517847,-2.388443 12.462223,-1.210918 12.172814,-0.047 11.655221,1.079411 10.920026,2.14529 9.982562,3.128973 8.862541,4.010675 7.583616,4.772927 6.172823,5.400973 4.659958,5.883104 3.076888,6.210903 1.456814,6.37944 -0.166496,6.387354 -1.759488,6.236873 -3.289579,5.933739 -4.725918,5.487054 -6.040068,4.909043 -7.206657,4.214747 -8.203934,3.421657 -9.014246,2.549275 -9.624409,1.618647 L 35.215378,13.172091 25,12.843579 14.806028,11.54367 4.838093,9.303321 -4.709986,6.174388 -13.65951,2.228057 l -8.191291,-4.675231 -7.295797,-5.300728 -6.288264,-5.810658 -5.196072,-6.195855 -4.048067,-6.450345 -2.873825,-6.571442 -1.702916,-6.559784 -0.564173,-6.419262 0.515021,-6.156896 1.509404,-5.782603 2.39644,-5.308929 3.156861,-4.750684 3.775113,-4.12455 4.239721,-3.448622 4.543525,-2.741936 4.68383,-2.023962 4.662424,-1.314094 4.485486,-0.631147 4.163391,0.0071 3.710391,0.584513 3.144217,1.086722 2.48558,1.501783 1.7576,1.820331 0.985176,2.035847 0.194314,2.144825 L 0,-70.710678"
       id="path20"
       style="fill:none;stroke:#000000;stroke-width:1" />
    <path
       d="m 0,70.710678 2.752546,-1.104903 3.085569,-0.669087 3.277058,-0.194724 3.319321,0.300386 3.208953,0.797762 2.946929,1.278733 2.538611,1.724947 1.993614,2.118862 1.325576,2.444232 L 25,80.09343 l -0.307068,2.833425 -1.22779,2.87499 -2.184894,2.804128 -3.151447,2.616718 -4.099723,2.311778 -5.001914,1.891512 -5.830867,1.361308 -6.560781,0.729623 -7.167908,0.0078 -7.631171,-0.790116 -7.93275,-1.647848 -8.058572,-2.547125 -7.99872,-3.468181 -7.747731,-4.390232 -7.304804,-5.291962 -6.673868,-6.152063 -5.863555,-6.949746 -4.887052,-7.665273 -3.761825,-8.280439 -2.509259,-8.779048 -1.154181,-9.147314 0.275699,-9.374236 1.750411,-9.451885 3.23843,-9.37563 4.707398,-9.144284 6.124889,-8.760166 7.459172,-8.229079 8.679966,-7.560209 9.75916,-6.765934 10.671492,-5.861565 11.395154,-4.86501 11.912325,-3.796376 12.209616,-2.677514 12.278396,-1.531534 12.11502,-0.382265 11.720942,0.746279 11.102688,1.830455 10.27174,2.84753 9.244275,3.776214 8.040806,4.597135 6.685729,5.293298 5.20675,5.850464 3.634277,6.257482 2.000703,6.506537 0.339676,6.593326 -1.314672,6.517148 -2.928508,6.280909 -4.469069,5.891045 -5.905408,5.357363 -7.209089,4.692792 -8.354832,3.913078 -9.321072,3.036405 -10.090432,2.082955 -10.65009,1.07443 L 27.533616,27.81808 16.42035,26.801554 5.404644,24.748888 -5.301579,21.696514 -15.497945,17.702229 -25,12.843579 l -8.643164,-5.627796 -7.643,-6.286513 -6.527715,-6.822394 -5.325647,-7.226093 -4.066614,-7.49152 -2.78118,-7.615944 -1.499902,-7.600011 -0.252592,-7.447702 0.932404,-7.166177 2.028885,-6.765569 3.013407,-6.258695 3.865837,-5.660696 4.569807,-4.988641 5.113078,-4.261069 5.487793,-3.497503 5.690628,-2.717948 5.722816,-1.942373 5.590059,-1.190201 5.302341,-0.47982 4.873609,0.171888 4.321378,0.749961 3.666235,1.241734 2.93127,1.637148 2.141443,1.928989 1.322915,2.113059 0.502339,2.188266 -0.293854,2.156631 -1.040158,2.023215 -1.712672,1.795977 L 0,-70.710678"
       id="path22"
       style="fill:none;stroke:#000000;stroke-width:1" />
  </g>
  <g
     transform="matrix(-2,0,0,2,211,210.4375)"
     id="g3039">
    <path
       d="m 0,70.710678 3.116308,0.243483 2.965476,0.721159 2.668186,1.171213 2.233065,1.576063 1.672779,1.919354 1.003696,2.186401 0.245464,2.364595 -0.579503,2.443759 -1.446607,2.416424 -2.329714,2.278069 -3.201834,2.027245 -4.035843,1.665655 -4.805185,1.198136 -5.484596,0.632563 -6.05077,-0.02033 -6.482996,-0.747179 -6.763729,-1.532338 -6.879082,-2.358225 -6.81923,-3.205771 -6.578711,-4.054877 -6.156629,-4.884924 -5.556729,-5.67528 -4.78737,-6.405823 -3.861371,-7.057457 L -70.710678,50 l -1.611371,-8.05562 -0.332446,-8.373296 1.013985,-8.555121 2.398698,-8.593622 3.790962,-8.484573 5.159271,-8.227133 6.472092,-7.823911 7.698623,-7.280942 8.80954,-6.607573 9.777708,-5.816289 10.578848,-4.922434 11.192139,-3.943886 11.600744,-2.900656 11.792233,-1.814438 11.758915,-0.708114 11.498054,0.394771 11.011964,1.470547 10.307995,2.495972 9.398383,3.44877 8.300006,4.308147 7.034009,5.055284 5.625337,5.673766 4.102177,6.149981 2.495327,6.473421 L 100,0 l -0.837485,6.636949 -2.495327,6.473421 -4.102178,6.149981 -5.625336,5.673766 -7.034009,5.055284 -8.300006,4.308147 -9.398383,3.44877 L 51.899281,40.24229 40.887316,41.712837 29.389263,42.107608 17.630348,41.399494 5.838115,39.585056 -5.762629,36.6844 -16.954768,32.740514 -27.533616,27.81808 l -9.777708,-5.816289 -8.80954,-6.607573 -7.698624,-7.280942 -6.472091,-7.823911 -5.159271,-8.227133 -3.790962,-8.484573 -2.398698,-8.593622 -1.013985,-8.555121 0.332446,-8.373296 1.611371,-8.05562 2.795753,-7.612595 3.861371,-7.057457 4.78737,-6.405823 5.556729,-5.67528 6.156629,-4.884924 6.578711,-4.054877 6.81923,-3.205771 6.879082,-2.358225 6.763729,-1.532338 6.482996,-0.747179 6.05077,-0.02033 5.484596,0.632563 4.805185,1.198136 4.035843,1.665655 3.201834,2.027245 2.329714,2.278069 1.446607,2.416424 0.579503,2.443759 -0.245464,2.364595 -1.003696,2.186401 -1.672779,1.919354 -2.233065,1.576063 -2.668186,1.171213 -2.965476,0.721159 L 0,-70.710678"
       id="path3041"
       style="fill:none;stroke:#000000;stroke-width:1" />
    <path
       d="m 0,70.710678 2.289746,1.48554 1.712672,1.795977 1.040158,2.023215 0.293854,2.156631 -0.502339,2.188266 -1.322915,2.113059 -2.141443,1.928989 -2.93127,1.637148 -3.666235,1.241734 -4.321378,0.749961 -4.873609,0.171888 -5.302341,-0.47982 -5.590059,-1.190201 -5.722816,-1.942373 -5.690628,-2.717948 -5.487793,-3.497503 -5.113078,-4.261069 -4.569807,-4.988641 -3.865837,-5.660696 -3.013407,-6.258695 -2.028885,-6.765569 -0.932404,-7.166177 0.252592,-7.447702 1.499902,-7.600011 2.78118,-7.615944 4.066614,-7.49152 5.325647,-7.226093 6.527715,-6.822394 7.643,-6.286513 8.643164,-5.627796 9.502055,-4.85865 10.196366,-3.994285 10.706223,-3.052374 11.015706,-2.052666 11.113266,-1.016526 10.992046,0.03354 10.65009,1.07443 10.090432,2.082955 9.321072,3.036405 8.354832,3.913078 7.209089,4.692792 5.905408,5.357363 4.469069,5.891045 2.928508,6.280909 1.314672,6.517148 -0.339676,6.593326 -2.000703,6.506537 -3.634277,6.257482 -5.20675,5.850464 -6.685729,5.293298 -8.040806,4.597135 -9.244275,3.776214 -10.27174,2.84753 -11.102689,1.830455 -11.720941,0.746279 -12.11502,-0.382265 -12.278396,-1.531534 -12.209616,-2.677514 -11.912325,-3.796376 -11.395154,-4.86501 -10.671492,-5.861565 -9.75916,-6.765934 -8.679967,-7.560209 -7.459171,-8.229079 -6.124889,-8.760166 -4.707398,-9.144284 -3.23843,-9.37563 -1.750411,-9.451885 -0.275699,-9.374236 1.154181,-9.147314 2.509259,-8.779048 3.761825,-8.28044 4.887052,-7.665272 5.863555,-6.949746 6.673868,-6.152063 7.304804,-5.291962 7.747731,-4.390232 7.99872,-3.468181 8.058572,-2.547125 7.93275,-1.647848 7.631171,-0.790116 7.167908,0.0078 6.560782,0.729623 5.830866,1.361308 5.001914,1.891512 4.099723,2.311778 3.151447,2.616718 2.184894,2.804128 1.22779,2.87499 L 25,-80.09343 l -0.551823,2.686544 -1.325576,2.444232 -1.993614,2.118862 -2.538611,1.724947 -2.94693,1.278733 -3.208952,0.797762 -3.319321,0.300386 L 5.838115,-68.936688 2.752546,-69.605775 0,-70.710678"
       id="path3043"
       style="fill:none;stroke:#000000;stroke-width:1" />
    <path
       d="m 0,70.710678 0.588579,2.146843 -0.194314,2.144825 -0.985176,2.035847 -1.7576,1.820331 -2.48558,1.501783 -3.144217,1.086722 -3.710391,0.584513 -4.163391,0.0071 -4.485486,-0.631147 L -25,80.09343 l -4.68383,-2.023962 -4.543525,-2.741936 -4.239721,-3.448622 -3.775113,-4.12455 -3.156861,-4.750684 -2.39644,-5.308929 -1.509404,-5.782603 -0.515021,-6.156896 0.564173,-6.419263 1.702916,-6.559783 2.873825,-6.571443 4.048067,-6.450344 5.196072,-6.195855 6.288264,-5.810658 7.295797,-5.300728 8.191291,-4.675231 8.949524,-3.946331 9.548079,-3.128933 9.967936,-2.240349 L 25,-12.843579 l 10.215378,-0.328512 10.025975,0.651857 9.624409,1.618648 9.014246,2.549274 8.203934,3.421657 7.206657,4.214747 6.040068,4.909043 4.725918,5.487054 3.289579,5.933739 1.759488,6.236873 0.166496,6.387354 -1.456814,6.37944 -3.076888,6.210903 -4.659958,5.883104 -6.172823,5.400973 -7.583616,4.772927 -8.862541,4.010675 -9.982562,3.128973 -10.920027,2.14529 -11.65522,1.079411 -12.172814,-0.047 L 6.266662,65.991933 -6.251185,63.60349 -18.590376,60.048104 -30.521248,55.36031 l -11.302509,-5.762511 -10.468478,-6.757694 -9.447579,-7.653318 -8.262583,-8.43162 -6.939691,-9.077494 -5.507922,-9.578833 -3.998421,-9.926779 -2.443737,-10.115912 -0.877054,-10.144351 0.66857,-10.013771 2.160978,-9.729332 3.569651,-9.299531 4.866398,-8.735977 6.026002,-8.053087 7.026773,-7.267716 7.851029,-6.398742 8.485458,-5.466591 8.921402,-4.49274 9.154986,-3.499192 9.187174,-2.507942 9.023667,-1.540448 8.674722,-0.617125 8.15483,0.243143 7.482315,1.02344 6.67883,1.709205 5.768783,2.288563 4.778689,2.752581 3.736486,3.09545 2.67081,3.314592 1.610272,3.410681 0.582721,3.387583 -0.385447,3.252216 -1.269953,3.014338 -2.049237,2.68626 -2.704988,2.282496 -3.222581,1.819364 -3.591434,1.314534 -3.805238,0.786559 -3.862096,0.254365 -3.764536,-0.263246 L 9.1364,-64.086374 5.99869,-65.26951 3.364484,-66.822364 1.337405,-68.666097 0,-70.710678"
       id="path3045"
       style="fill:none;stroke:#000000;stroke-width:1" />
    <path
       d="m 0,70.710678 -1.337405,1.974798 -2.027079,1.634453 -2.634206,1.204284 -3.13771,0.695619 -3.519414,0.122118 -3.764536,-0.500584 -3.862096,-1.155288 -3.805238,-1.823687 -3.591434,-2.486843 -3.222581,-3.125697 -2.704988,-3.721564 -2.049237,-4.256643 -1.269953,-4.714485 -0.385447,-5.080451 0.582721,-5.342101 1.610272,-5.489553 2.67081,-5.515767 3.736486,-5.416754 4.778689,-5.191724 5.768783,-4.843139 6.67883,-4.376693 7.482315,-3.801205 8.15483,-3.128446 8.674722,-2.372868 9.023667,-1.551284 9.187174,-0.682478 9.154986,0.213233 8.921402,1.114485 8.485458,1.999372 7.851029,2.845982 7.026773,3.632922 6.026002,4.339846 4.866398,4.947953 3.569651,5.440461 2.160978,5.803026 0.66857,6.024104 -0.877054,6.09526 -2.443737,6.011392 -3.998421,5.770881 -5.507922,5.375659 -6.939691,4.831193 -8.262583,4.14638 -9.447579,3.33337 L 41.823757,76.097516 30.521248,77.483481 18.590376,77.772897 6.251185,76.912412 -6.266662,74.871851 -18.728885,71.645 -30.901699,67.249851 -42.55692,61.728288 -53.476946,55.14523 l -9.982562,-7.557979 -8.862541,-8.426545 -7.583616,-9.171305 -6.172823,-9.777519 -4.659958,-10.233497 -3.076888,-10.530851 -1.456814,-10.66468 0.166496,-10.633655 1.759488,-10.440047 3.289579,-10.089637 4.725918,-9.591574 6.040068,-8.958134 7.206657,-8.204414 8.203934,-7.347963 9.014246,-6.408344 9.624409,-5.406672 10.025975,-4.365099 L -25,-95.968966 l 10.193972,-2.25285 9.967935,-1.22687 9.548079,-0.249323 8.949524,0.660372 8.191291,1.484811 7.295797,2.208997 6.288264,2.820664 5.196072,3.310552 4.048067,3.672579 2.873825,3.903955 1.702916,4.005208 0.564173,3.980119 -0.515021,3.835591 -1.509404,3.581429 -2.39644,3.230056 -3.156861,2.796167 -3.775113,2.296315 -4.239721,1.748474 -4.543525,1.171554 -4.68383,0.584894 -4.662424,0.0078 -4.485486,-0.541161 -4.163391,-1.044257 -3.710391,-1.485436 -3.144217,-1.850552 -2.48558,-2.127765 -1.7576,-2.307847 -0.985176,-2.384418 -0.194314,-2.354104 L 0,-70.710678"
       id="path3047"
       style="fill:none;stroke:#000000;stroke-width:1" />
    <path
       d="m 0,70.710678 -2.752546,1.03512 -3.085569,0.459807 -3.277058,-0.153846 -3.319321,-0.787903 -3.208953,-1.423744 -2.946929,-2.042562 -2.538611,-2.62587 -1.993614,-3.155989 L -24.448177,58.39915 -25,54.406272 l 0.307068,-4.272493 1.22779,-4.445372 2.184894,-4.504276 3.151447,-4.444953 4.099723,-4.266296 5.001914,-3.970384 5.830867,-3.562482 6.560781,-3.050927 7.167908,-2.446959 7.631171,-1.76446 7.93275,-1.019639 8.058572,-0.230642 7.99872,0.582879 7.747731,1.400239 7.304804,2.20023 6.673868,2.961643 5.863555,3.663787 4.887052,4.287017 3.761825,4.813221 2.509259,5.226289 1.154181,5.51252 -0.275699,5.660994 -1.750411,5.663861 -3.23843,5.51656 -4.707398,5.217978 -6.124889,4.770499 -7.459172,4.179988 -8.679966,3.455688 -9.75916,2.610037 -10.671492,1.658391 -11.395154,0.618709 -11.912325,-0.488864 -12.209616,-1.642433 -12.278396,-2.81886 -12.11502,-3.994281 -11.720941,-5.144657 -11.102689,-6.246325 -10.27174,-7.276536 -9.244275,-8.213982 -8.040806,-9.039287 -6.685729,-9.73545 -5.20675,-10.288232 -3.634277,-10.686487 -2.000703,-10.922408 -0.339676,-10.991704 1.314672,-10.893693 2.928508,-10.631303 4.469069,-10.210993 5.905408,-9.642603 7.209089,-8.939093 8.354832,-8.116252 9.321072,-7.192303 10.090432,-6.187474 10.65009,-5.123522 10.992046,-4.023209 11.113266,-2.90978 11.015706,-1.806404 10.706223,-0.73565 10.196366,0.281043 9.502055,1.223857 8.643164,2.075037 7.643,2.819294 6.527715,3.444138 5.325647,3.940134 4.066614,4.3011 2.78118,4.524212 1.499902,4.610018 0.252592,4.562399 -0.932404,4.388411 -2.028885,4.098083 -3.013407,3.704118 -3.865837,3.221552 -4.569807,2.667337 -5.113078,2.059894 -5.487793,1.418632 -5.690628,0.76343 -5.722816,0.114138 -5.590059,-0.509947 -5.302341,-1.090563 -4.873609,-1.610955 -4.321378,-2.056294 -3.666235,-2.414044 -2.93127,-2.674275 -2.141443,-2.829912 -1.322915,-2.876889 -0.502339,-2.814248 0.293854,-2.644147 1.040158,-2.371786 1.712672,-2.005256 L 0,-70.710678"
       id="path3049"
       style="fill:none;stroke:#000000;stroke-width:1" />
    <path
       d="m 0,70.710678 -3.116308,-0.313266 -2.965476,-0.930438 -2.668186,-1.519783 -2.233065,-2.06358 -1.672779,-2.545336 -1.003696,-2.950231 -0.245464,-3.265518 0.579503,-3.480886 1.446607,-3.588734 2.329714,-3.584402 3.201834,-3.466312 4.035843,-3.236038 4.805185,-2.898284 5.484596,-2.460798 6.05077,-1.93419 6.482996,-1.331693 6.763729,-0.668836 6.879082,0.03692 6.81923,0.766626 6.578711,1.500302 6.156629,2.217437 5.556729,2.897514 4.78737,3.52052 3.861371,4.067464 L 70.710678,50 l 1.611371,4.8652 0.332446,5.087337 -1.013985,5.176865 -2.398698,5.126404 -3.790962,4.931813 -5.159271,4.592339 -6.472092,4.11067 -7.698623,3.492917 -8.80954,2.748504 -9.777708,1.889983 -10.578848,0.932767 -11.192139,-0.105206 -11.600744,-1.203863 -11.792233,-2.34146 -11.758915,-3.49506 -11.498054,-4.641072 -11.011964,-5.755787 -10.307995,-6.81592 -9.398383,-7.799163 -8.300006,-8.684693 -7.034009,-9.453662 -5.625337,-10.089637 -4.102177,-10.578985 -2.495327,-10.91119 L -100,0 l 0.837485,-11.079101 2.495327,-10.91119 4.102178,-10.578985 5.625336,-10.089637 7.034009,-9.453662 8.300006,-8.684693 9.398383,-7.799163 10.307995,-6.81592 11.011965,-5.755787 11.498053,-4.641072 11.758915,-3.49506 11.792233,-2.34146 11.600744,-1.203863 11.192139,-0.105206 10.578848,0.932767 9.777708,1.889983 8.80954,2.748504 7.698624,3.492917 6.472091,4.11067 5.159271,4.592339 3.790962,4.931813 2.398698,5.126404 1.013985,5.176865 -0.332446,5.087337 -1.611371,4.8652 -2.795753,4.520863 -3.861371,4.067464 -4.78737,3.52052 -5.556729,2.897514 -6.156629,2.217437 -6.578711,1.500302 -6.81923,0.766626 -6.879082,0.03692 -6.763729,-0.668836 -6.482996,-1.331693 -6.05077,-1.93419 -5.484596,-2.460798 -4.805185,-2.898284 -4.035843,-3.236038 -3.201834,-3.466312 -2.329714,-3.584402 -1.446607,-3.588734 -0.579503,-3.480886 0.245464,-3.265518 1.003696,-2.950231 1.672779,-2.545336 2.233065,-2.06358 2.668186,-1.519783 2.965476,-0.930438 L 0,-70.710678"
       id="path3051"
       style="fill:none;stroke:#000000;stroke-width:1" />
    <path
       d="m 0,70.710678 -2.289746,-1.555323 -1.712672,-2.005256 -1.040158,-2.371786 -0.293854,-2.644147 0.502339,-2.814248 1.322915,-2.876889 2.141443,-2.829912 2.93127,-2.674275 3.666235,-2.414044 4.321378,-2.056294 4.873609,-1.610955 5.302341,-1.090563 5.590059,-0.509947 5.722816,0.114138 5.690628,0.76343 5.487793,1.418632 5.113078,2.059894 4.569807,2.667337 3.865837,3.221552 3.013407,3.704118 2.028885,4.098083 0.932404,4.388411 -0.252592,4.562399 -1.499902,4.610018 -2.78118,4.524212 -4.066614,4.3011 -5.325647,3.940134 -6.527715,3.444138 -7.643,2.819294 L 25,95.968966 15.497945,97.192823 5.301579,97.473866 -5.404644,96.738216 -16.42035,94.931812 l -11.113266,-2.90978 -10.992046,-4.023209 -10.65009,-5.123522 -10.090432,-6.187474 -9.321072,-7.192303 -8.354832,-8.116252 -7.209089,-8.939093 -5.905408,-9.642603 -4.469069,-10.210993 -2.928508,-10.631303 -1.314672,-10.893693 0.339676,-10.991704 2.000703,-10.922408 3.634277,-10.686487 5.20675,-10.288232 6.685729,-9.73545 8.040806,-9.039287 9.244275,-8.213982 10.27174,-7.276536 11.102689,-6.246325 11.720941,-5.144657 12.11502,-3.994281 12.278396,-2.81886 12.209616,-1.642433 11.912325,-0.488864 11.395154,0.618709 10.671492,1.658391 9.75916,2.610037 8.679967,3.455688 7.459171,4.179988 6.124889,4.770499 4.707398,5.217978 3.23843,5.516561 1.750411,5.66386 0.275699,5.660994 -1.154181,5.51252 -2.509259,5.226289 -3.761825,4.813221 -4.887052,4.287017 -5.863555,3.663787 -6.673868,2.961643 -7.304804,2.20023 -7.747731,1.400239 -7.99872,0.582879 -8.058572,-0.230642 -7.93275,-1.019639 -7.631171,-1.76446 -7.167908,-2.446959 -6.560782,-3.050927 -5.830866,-3.562482 -5.001914,-3.970384 -4.099723,-4.266296 -3.151447,-4.444953 -2.184894,-4.504276 -1.22779,-4.445372 L -25,-54.406273 l 0.551823,-3.992877 1.325576,-3.616541 1.993614,-3.155989 2.538611,-2.62587 2.94693,-2.042562 3.208952,-1.423744 3.319321,-0.787903 3.277058,-0.153846 3.085569,0.459807 L 0,-70.710678"
       id="path3053"
       style="fill:none;stroke:#000000;stroke-width:1" />
    <path
       d="m 0,70.710678 -0.588579,-2.216626 0.194314,-2.354104 0.985176,-2.384418 1.7576,-2.307847 2.48558,-2.127765 3.144217,-1.850552 3.710391,-1.485436 4.163391,-1.044257 4.485486,-0.541161 4.662424,0.0078 4.68383,0.584894 4.543525,1.171554 4.239721,1.748474 3.775113,2.296315 3.156861,2.796167 2.39644,3.230056 1.509404,3.581429 0.515021,3.835591 -0.564173,3.980119 -1.702916,4.005208 -2.873825,3.903955 -4.048067,3.672579 -5.196072,3.310552 -6.288264,2.820664 -7.295797,2.208997 -8.191291,1.484811 -8.949524,0.660372 -9.548079,-0.249323 -9.967936,-1.22687 L -25,95.968966 l -10.215378,-3.306281 -10.025975,-4.365099 -9.624409,-5.406672 -9.014246,-6.408344 -8.203934,-7.347963 -7.206657,-8.204414 -6.040068,-8.958134 -4.725918,-9.591574 -3.289579,-10.089637 -1.759488,-10.440047 -0.166496,-10.633656 1.456814,-10.664679 3.076888,-10.530851 4.659958,-10.233497 6.172823,-9.777519 7.583616,-9.171305 8.862541,-8.426546 9.982562,-7.557978 10.920027,-6.583058 11.65522,-5.521563 12.172814,-4.395149 12.462223,-3.226851 12.517847,-2.040561 12.339191,-0.860485 11.930872,0.289416 11.302509,1.385965 10.468478,2.407301 9.447579,3.33337 8.262583,4.14638 6.939691,4.831193 5.507922,5.375659 3.998421,5.770881 2.443737,6.011392 0.877054,6.09526 -0.66857,6.024104 -2.160978,5.803026 -3.569651,5.440461 -4.866398,4.947953 -6.026002,4.339846 -7.026773,3.632922 -7.851029,2.845982 -8.485458,1.999372 -8.921402,1.114485 -9.154986,0.213233 -9.187174,-0.682478 -9.023667,-1.551284 -8.674722,-2.372868 -8.15483,-3.128446 -7.482315,-3.801206 -6.67883,-4.376692 -5.768783,-4.843139 -4.778689,-5.191724 -3.736486,-5.416754 -2.67081,-5.515767 -1.610272,-5.489553 -0.582721,-5.342101 0.385447,-5.080451 1.269953,-4.714485 2.049237,-4.256643 2.704988,-3.721564 3.222581,-3.125697 3.591434,-2.486843 3.805238,-1.823687 3.862096,-1.155288 3.764536,-0.500584 3.519414,0.122118 3.13771,0.695619 2.634206,1.204284 2.027079,1.634453 L 0,-70.710678"
       id="path3055"
       style="fill:none;stroke:#000000;stroke-width:1" />
    <path
       d="M 0,70.710678 1.337405,68.666097 3.364484,66.822364 5.99869,65.26951 9.1364,64.086374 l 3.519414,-0.748099 3.764536,-0.263246 3.862096,0.254365 3.805238,0.786559 3.591434,1.314535 3.222581,1.819363 2.704988,2.282496 2.049237,2.68626 1.269953,3.014338 0.385447,3.252216 -0.582721,3.387583 -1.610272,3.410681 -2.67081,3.314592 -3.736486,3.09545 -4.778689,2.752581 -5.768783,2.288563 -6.67883,1.709205 -7.482315,1.02344 -8.15483,0.243143 -8.674722,-0.617125 -9.023667,-1.540448 -9.187174,-2.507942 -9.154986,-3.499192 -8.921402,-4.49274 -8.485459,-5.466591 -7.851028,-6.398742 -7.026773,-7.267716 -6.026002,-8.053087 -4.866398,-8.735977 -3.569651,-9.299532 -2.160978,-9.729331 -0.66857,-10.013771 0.877054,-10.144352 2.443737,-10.115911 3.998421,-9.926779 5.507922,-9.578833 6.939691,-9.077494 8.262583,-8.43162 9.447579,-7.653318 10.468478,-6.757694 11.302509,-5.762511 11.930872,-4.687794 12.339191,-3.555386 12.517847,-2.388443 12.462223,-1.210918 12.172814,-0.047 11.655221,1.079411 10.920026,2.14529 9.982562,3.128973 8.862541,4.010675 7.583616,4.772927 6.172823,5.400973 4.659958,5.883104 3.076888,6.210903 1.456814,6.37944 -0.166496,6.387354 -1.759488,6.236873 -3.289579,5.933739 -4.725918,5.487054 -6.040068,4.909043 -7.206657,4.214747 -8.203934,3.421657 -9.014246,2.549275 -9.624409,1.618647 L 35.215378,13.172091 25,12.843579 14.806028,11.54367 4.838093,9.303321 -4.709986,6.174388 -13.65951,2.228057 l -8.191291,-4.675231 -7.295797,-5.300728 -6.288264,-5.810658 -5.196072,-6.195855 -4.048067,-6.450345 -2.873825,-6.571442 -1.702916,-6.559784 -0.564173,-6.419262 0.515021,-6.156896 1.509404,-5.782603 2.39644,-5.308929 3.156861,-4.750684 3.775113,-4.12455 4.239721,-3.448622 4.543525,-2.741936 4.68383,-2.023962 4.662424,-1.314094 4.485486,-0.631147 4.163391,0.0071 3.710391,0.584513 3.144217,1.086722 2.48558,1.501783 1.7576,1.820331 0.985176,2.035847 0.194314,2.144825 L 0,-70.710678"
       id="path3057"
       style="fill:none;stroke:#000000;stroke-width:1" />
    <path
       d="m 0,70.710678 2.752546,-1.104903 3.085569,-0.669087 3.277058,-0.194724 3.319321,0.300386 3.208953,0.797762 2.946929,1.278733 2.538611,1.724947 1.993614,2.118862 1.325576,2.444232 L 25,80.09343 l -0.307068,2.833425 -1.22779,2.87499 -2.184894,2.804128 -3.151447,2.616718 -4.099723,2.311778 -5.001914,1.891512 -5.830867,1.361308 -6.560781,0.729623 -7.167908,0.0078 -7.631171,-0.790116 -7.93275,-1.647848 -8.058572,-2.547125 -7.99872,-3.468181 -7.747731,-4.390232 -7.304804,-5.291962 -6.673868,-6.152063 -5.863555,-6.949746 -4.887052,-7.665273 -3.761825,-8.280439 -2.509259,-8.779048 -1.154181,-9.147314 0.275699,-9.374236 1.750411,-9.451885 3.23843,-9.37563 4.707398,-9.144284 6.124889,-8.760166 7.459172,-8.229079 8.679966,-7.560209 9.75916,-6.765934 10.671492,-5.861565 11.395154,-4.86501 11.912325,-3.796376 12.209616,-2.677514 12.278396,-1.531534 12.11502,-0.382265 11.720942,0.746279 11.102688,1.830455 10.27174,2.84753 9.244275,3.776214 8.040806,4.597135 6.685729,5.293298 5.20675,5.850464 3.634277,6.257482 2.000703,6.506537 0.339676,6.593326 -1.314672,6.517148 -2.928508,6.280909 -4.469069,5.891045 -5.905408,5.357363 -7.209089,4.692792 -8.354832,3.913078 -9.321072,3.036405 -10.090432,2.082955 -10.65009,1.07443 L 27.533616,27.81808 16.42035,26.801554 5.404644,24.748888 -5.301579,21.696514 -15.497945,17.702229 -25,12.843579 l -8.643164,-5.627796 -7.643,-6.286513 -6.527715,-6.822394 -5.325647,-7.226093 -4.066614,-7.49152 -2.78118,-7.615944 -1.499902,-7.600011 -0.252592,-7.447702 0.932404,-7.166177 2.028885,-6.765569 3.013407,-6.258695 3.865837,-5.660696 4.569807,-4.988641 5.113078,-4.261069 5.487793,-3.497503 5.690628,-2.717948 5.722816,-1.942373 5.590059,-1.190201 5.302341,-0.47982 4.873609,0.171888 4.321378,0.749961 3.666235,1.241734 2.93127,1.637148 2.141443,1.928989 1.322915,2.113059 0.502339,2.188266 -0.293854,2.156631 -1.040158,2.023215 -1.712672,1.795977 L 0,-70.710678"
       id="path3059"
       style="fill:none;stroke:#000000;stroke-width:1" />
  </g>
</svg>
