<svg xmlns="http://www.w3.org/2000/svg" version="1.1" width="400.000000" height="400.000000">
  <circle cx="200.000000" cy="200.000000" r="200.000000" stroke="black" stroke-width="1" fill="none"/>  <path d="M209.154464 399.697884 M228.875957 397.182287 L250.000000 391.937933 M271.899469 383.819131 L293.909720 372.766534 M315.351694 358.810599 L335.555578 342.071945 M353.884177 322.758544 L369.755179 301.159882 M382.661518 277.638255 L392.189119 252.617531 M398.031398 226.569740 L400.000000 200.000000 M191.403386 0.289720 L176.111731 2.484329 M163.672874 6.530778 L154.371209 12.028602 M148.372695 18.547241 L145.719613 25.642227 M146.329750 32.871765 L150.000000 39.813140 M156.414278 46.078350 L165.155452 51.328407 M175.720868 55.285816 L187.540920 57.744757 M200.000000 58.578644 "  style="fill:none;stroke:black;stroke-width:1;stroke-linecap:round;stroke-linejoin:round" />
  <path d="M121.879815 16.147192 M112.730651 22.315205 L107.067582 29.324223 M104.894348 36.727843 L106.090280 44.087982 M110.415352 50.991100 L117.519470 57.063447 M126.955644 61.984816 L138.196601 65.500298 M150.654221 67.429633 L163.701123 67.673817 M176.693621 66.218726 L188.995250 63.135641 M200.000000 58.578644 "  style="fill:none;stroke:black;stroke-width:1;stroke-linecap:round;stroke-linejoin:round" />
  <path d="M69.098301 49.624761 M64.958820 57.359369 L64.444422 65.239822 M67.391840 72.832704 L73.520458 79.734762 M82.442950 85.587719 L93.679672 90.091420 M106.676301 93.014827 L120.824085 94.204488 M135.481999 93.590169 L150.000000 91.187455 M163.742575 87.097219 L176.111731 81.501990 M186.568619 74.659334 L194.653019 66.892499 M200.000000 58.578644 "  style="fill:none;stroke:black;stroke-width:1;stroke-linecap:round;stroke-linejoin:round" />
  <path d="M31.742617 92.679809 L30.244821 101.049983 M32.465970 109.257108 L38.196601 116.874612 M47.112497 123.511825 L58.786652 128.828291 M72.704839 132.546251 L88.284220 134.460833 M104.894348 134.447596 L121.879815 132.467167 M138.583730 128.566787 L154.371209 122.878733 M168.652038 115.615654 L180.901699 107.062991 M190.680032 97.568758 L197.646846 87.531033 M201.573948 77.383613 L202.353154 67.580339 M200.000000 58.578644 "  style="fill:none;stroke:black;stroke-width:1;stroke-linecap:round;stroke-linejoin:round" />
  <path d="M7.810881 147.662000 M9.788697 156.298398 L15.511016 164.419425 M24.719951 171.608538 L37.046131 177.490858 M52.021960 181.746927 L69.098301 184.124464 M87.664004 184.447698 L107.067582 182.623965 M126.640264 178.647300 L145.719613 172.598937 M163.672874 164.644661 L179.919214 155.029126 M193.950087 144.067339 L205.346981 132.133597 M213.795933 119.648284 L219.098301 107.062991 M221.177401 94.844478 L220.080786 83.458058 M215.978082 73.350983 L209.154464 64.936430 M200.000000 58.578644 "  style="fill:none;stroke:black;stroke-width:1;stroke-linecap:round;stroke-linejoin:round" />
  <path d="M1.968602 208.809900 L7.810881 217.167939 M17.338482 224.638816 L30.244821 230.819760 M46.115823 235.355339 L64.444422 237.950598 M84.648306 238.382030 L106.090280 236.506018 M128.100531 232.264427 L150.000000 225.687157 M171.124043 216.891557 L190.845536 206.078724 M208.596614 193.526817 L223.888269 179.581615 M236.327126 164.644661 L245.628791 149.159398 M251.627305 133.595800 L254.280387 118.434035 M253.670250 104.147732 L250.000000 91.187455 M243.585722 79.964962 L234.844548 70.838802 M224.279132 64.101771 L212.459080 59.970656 M200.000000 58.578644 "  style="fill:none;stroke:black;stroke-width:1;stroke-linecap:round;stroke-linejoin:round" />
  <path d="M9.714622 261.046822 L15.511016 269.374955 M25.084502 276.875739 L38.196601 283.125388 M54.493965 287.738628 L73.520458 290.382994 M94.732834 290.791272 L117.519470 288.771650 M141.221475 284.215216 L165.155452 277.100524 M188.637088 267.495081 L211.004750 255.553677 M231.642255 241.513640 L250.000000 225.687157 M265.613717 208.450949 L278.120185 190.233648 M287.269349 171.501332 L292.932418 152.741721 M295.105652 134.447596 L293.909720 117.100017 M289.584648 101.151942 L282.480530 87.012815 M273.044356 75.034681 L261.803399 65.500298 M249.345779 58.613678 L236.298877 54.493392 M223.306379 53.168861 L211.004750 54.579772 M200.000000 58.578644 "  style="fill:none;stroke:black;stroke-width:1;stroke-linecap:round;stroke-linejoin:round" />
  <path d="M37.046131 315.406585 M46.115823 322.758544 L58.786652 328.938190 M74.773308 333.536642 L93.679672 336.189244 M115.012177 336.589286 L138.196601 334.499702 M162.597688 329.762355 L187.540920 322.304548 M212.335665 312.142556 L236.298877 299.382020 M258.778525 284.215216 L279.175915 266.915263 M296.966116 247.827494 L311.715780 227.358276 M323.097714 205.961680 L330.901699 184.124464 M335.041180 162.349901 L335.555578 141.141018 M332.608160 120.983832 L326.479542 102.331182 M317.557050 85.587719 L306.320328 71.096579 M293.323699 59.128215 L279.175915 49.871774 M264.518001 43.429328 L250.000000 39.813140 M236.257425 38.946092 L223.888269 40.665220 M213.431381 44.728253 L205.346981 50.822914 M200.000000 58.578644 "  style="fill:none;stroke:black;stroke-width:1;stroke-linecap:round;stroke-linejoin:round" />
  <path d="M76.902286 357.516384 L88.284220 363.618792 M103.033884 368.256064 L120.824085 371.036610 M141.221475 371.618421 L163.701123 369.722142 M187.664335 365.141995 L212.459080 357.754140 M237.402312 347.522196 L261.803399 334.499702 M284.987823 318.829445 L306.320328 300.739652 M325.226692 280.537203 L341.213348 258.598068 M353.884177 235.355339 L362.953869 211.285238 M368.257383 186.891621 L369.755179 162.689502 M367.534030 139.188188 L361.803399 116.874612 M352.887503 96.197445 L341.213348 77.552549 M327.295161 61.270285 L311.715780 47.605111 M295.105652 36.727843 L278.120185 28.720833 M261.416270 23.576255 L245.628791 21.197529 M231.347962 21.403843 L219.098301 23.937604 M209.319968 28.474553 L202.353154 34.636176 M198.426052 42.003973 L197.646846 50.135074 M200.000000 58.578644 "  style="fill:none;stroke:black;stroke-width:1;stroke-linecap:round;stroke-linejoin:round" />
  <path d="M134.386283 388.741680 L150.000000 391.937933 M168.357745 393.068344 L188.995250 391.814193 M211.362912 387.923650 L234.844548 381.221871 M258.778525 371.618421 L282.480530 359.111773 M305.267166 343.790711 L326.479542 325.832586 M345.506035 305.498469 L361.803399 283.125388 M374.915498 259.115898 L384.488984 233.925364 M390.285378 208.047383 L392.189119 181.997878 M390.211303 156.298398 L384.488984 131.459228 M375.280049 107.962892 L362.953869 86.248626 M347.978040 66.698369 L330.901699 49.624761 M312.335996 35.261571 L292.932418 23.756875 M273.359736 15.169236 L254.280387 9.467007 M236.327126 6.530778 L220.080786 6.158873 M206.049913 8.075702 L194.653019 11.942665 M186.204067 17.371213 L180.901699 23.937604 M178.822599 31.198833 L179.919214 38.709151 M184.021918 46.036603 L190.845536 52.778983 M200.000000 58.578644 "  style="fill:none;stroke:black;stroke-width:1;stroke-linecap:round;stroke-linejoin:round" />
  <path d="M190.845536 399.697884 M171.124043 397.182287 L150.000000 391.937933 M128.100531 383.819131 L106.090280 372.766534 M84.648306 358.810599 L64.444422 342.071945 M46.115823 322.758544 L30.244821 301.159882 M17.338482 277.638255 L7.810881 252.617531 M1.968602 226.569740 L0.000000 200.000000 M208.596614 0.289720 L223.888269 2.484329 M236.327126 6.530778 L245.628791 12.028602 M251.627305 18.547241 L254.280387 25.642227 M253.670250 32.871765 L250.000000 39.813140 M243.585722 46.078350 L234.844548 51.328407 M224.279132 55.285816 L212.459080 57.744757 M200.000000 58.578644 "  style="fill:none;stroke:black;stroke-width:1;stroke-linecap:round;stroke-linejoin:round" />
  <path d="M278.120185 16.147192 M287.269349 22.315205 L292.932418 29.324223 M295.105652 36.727843 L293.909720 44.087982 M289.584648 50.991100 L282.480530 57.063447 M273.044356 61.984816 L261.803399 65.500298 M249.345779 67.429633 L236.298877 67.673817 M223.306379 66.218726 L211.004750 63.135641 M200.000000 58.578644 "  style="fill:none;stroke:black;stroke-width:1;stroke-linecap:round;stroke-linejoin:round" />
  <path d="M330.901699 49.624761 M335.041180 57.359369 L335.555578 65.239822 M332.608160 72.832704 L326.479542 79.734762 M317.557050 85.587719 L306.320328 90.091420 M293.323699 93.014827 L279.175915 94.204488 M264.518001 93.590169 L250.000000 91.187455 M236.257425 87.097219 L223.888269 81.501990 M213.431381 74.659334 L205.346981 66.892499 M200.000000 58.578644 "  style="fill:none;stroke:black;stroke-width:1;stroke-linecap:round;stroke-linejoin:round" />
  <path d="M368.257383 92.679809 L369.755179 101.049983 M367.534030 109.257108 L361.803399 116.874612 M352.887503 123.511825 L341.213348 128.828291 M327.295161 132.546251 L311.715780 134.460833 M295.105652 134.447596 L278.120185 132.467167 M261.416270 128.566787 L245.628791 122.878733 M231.347962 115.615654 L219.098301 107.062991 M209.319968 97.568758 L202.353154 87.531033 M198.426052 77.383613 L197.646846 67.580339 M200.000000 58.578644 "  style="fill:none;stroke:black;stroke-width:1;stroke-linecap:round;stroke-linejoin:round" />
  <path d="M392.189119 147.662000 M390.211303 156.298398 L384.488984 164.419425 M375.280049 171.608538 L362.953869 177.490858 M347.978040 181.746927 L330.901699 184.124464 M312.335996 184.447698 L292.932418 182.623965 M273.359736 178.647300 L254.280387 172.598937 M236.327126 164.644661 L220.080786 155.029126 M206.049913 144.067339 L194.653019 132.133597 M186.204067 119.648284 L180.901699 107.062991 M178.822599 94.844478 L179.919214 83.458058 M184.021918 73.350983 L190.845536 64.936430 M200.000000 58.578644 "  style="fill:none;stroke:black;stroke-width:1;stroke-linecap:round;stroke-linejoin:round" />
  <path d="M398.031398 208.809900 L392.189119 217.167939 M382.661518 224.638816 L369.755179 230.819760 M353.884177 235.355339 L335.555578 237.950598 M315.351694 238.382030 L293.909720 236.506018 M271.899469 232.264427 L250.000000 225.687157 M228.875957 216.891557 L209.154464 206.078724 M191.403386 193.526817 L176.111731 179.581615 M163.672874 164.644661 L154.371209 149.159398 M148.372695 133.595800 L145.719613 118.434035 M146.329750 104.147732 L150.000000 91.187455 M156.414278 79.964962 L165.155452 70.838802 M175.720868 64.101771 L187.540920 59.970656 M200.000000 58.578644 "  style="fill:none;stroke:black;stroke-width:1;stroke-linecap:round;stroke-linejoin:round" />
  <path d="M390.285378 261.046822 L384.488984 269.374955 M374.915498 276.875739 L361.803399 283.125388 M345.506035 287.738628 L326.479542 290.382994 M305.267166 290.791272 L282.480530 288.771650 M258.778525 284.215216 L234.844548 277.100524 M211.362912 267.495081 L188.995250 255.553677 M168.357745 241.513640 L150.000000 225.687157 M134.386283 208.450949 L121.879815 190.233648 M112.730651 171.501332 L107.067582 152.741721 M104.894348 134.447596 L106.090280 117.100017 M110.415352 101.151942 L117.519470 87.012815 M126.955644 75.034681 L138.196601 65.500298 M150.654221 58.613678 L163.701123 54.493392 M176.693621 53.168861 L188.995250 54.579772 M200.000000 58.578644 "  style="fill:none;stroke:black;stroke-width:1;stroke-linecap:round;stroke-linejoin:round" />
  <path d="M362.953869 315.406585 M353.884177 322.758544 L341.213348 328.938190 M325.226692 333.536642 L306.320328 336.189244 M284.987823 336.589286 L261.803399 334.499702 M237.402312 329.762355 L212.459080 322.304548 M187.664335 312.142556 L163.701123 299.382020 M141.221475 284.215216 L120.824085 266.915263 M103.033884 247.827494 L88.284220 227.358276 M76.902286 205.961680 L69.098301 184.124464 M64.958820 162.349901 L64.444422 141.141018 M67.391840 120.983832 L73.520458 102.331182 M82.442950 85.587719 L93.679672 71.096579 M106.676301 59.128215 L120.824085 49.871774 M135.481999 43.429328 L150.000000 39.813140 M163.742575 38.946092 L176.111731 40.665220 M186.568619 44.728253 L194.653019 50.822914 M200.000000 58.578644 "  style="fill:none;stroke:black;stroke-width:1;stroke-linecap:round;stroke-linejoin:round" />
  <path d="M323.097714 357.516384 L311.715780 363.618792 M296.966116 368.256064 L279.175915 371.036610 M258.778525 371.618421 L236.298877 369.722142 M212.335665 365.141995 L187.540920 357.754140 M162.597688 347.522196 L138.196601 334.499702 M115.012177 318.829445 L93.679672 300.739652 M74.773308 280.537203 L58.786652 258.598068 M46.115823 235.355339 L37.046131 211.285238 M31.742617 186.891621 L30.244821 162.689502 M32.465970 139.188188 L38.196601 116.874612 M47.112497 96.197445 L58.786652 77.552549 M72.704839 61.270285 L88.284220 47.605111 M104.894348 36.727843 L121.879815 28.720833 M138.583730 23.576255 L154.371209 21.197529 M168.652038 21.403843 L180.901699 23.937604 M190.680032 28.474553 L197.646846 34.636176 M201.573948 42.003973 L202.353154 50.135074 M200.000000 58.578644 "  style="fill:none;stroke:black;stroke-width:1;stroke-linecap:round;stroke-linejoin:round" />
  <path d="M265.613717 388.741680 L250.000000 391.937933 M231.642255 393.068344 L211.004750 391.814193 M188.637088 387.923650 L165.155452 381.221871 M141.221475 371.618421 L117.519470 359.111773 M94.732834 343.790711 L73.520458 325.832586 M54.493965 305.498469 L38.196601 283.125388 M25.084502 259.115898 L15.511016 233.925364 M9.714622 208.047383 L7.810881 181.997878 M9.788697 156.298398 L15.511016 131.459228 M24.719951 107.962892 L37.046131 86.248626 M52.021960 66.698369 L69.098301 49.624761 M87.664004 35.261571 L107.067582 23.756875 M126.640264 15.169236 L145.719613 9.467007 M163.672874 6.530778 L179.919214 6.158873 M193.950087 8.075702 L205.346981 11.942665 M213.795933 17.371213 L219.098301 23.937604 M221.177401 31.198833 L220.080786 38.709151 M215.978082 46.036603 L209.154464 52.778983 M200.000000 58.578644 "  style="fill:none;stroke:black;stroke-width:1;stroke-linecap:round;stroke-linejoin:round" />
</svg>
